<mxfile host="65bd71144e">
    <diagram id="VMerzewhZhmX0GCjE1Os" name="UML">
        <mxGraphModel dx="2942" dy="2117" grid="0" gridSize="10" guides="1" tooltips="1" connect="1" arrows="1" fold="1" page="0" pageScale="1" pageWidth="827" pageHeight="1169" math="0" shadow="0">
            <root>
                <mxCell id="NZ24hD41bVVt_TexhkNw-0"/>
                <mxCell id="NZ24hD41bVVt_TexhkNw-1" parent="NZ24hD41bVVt_TexhkNw-0"/>
                <mxCell id="ayO-XwdDbGL5or1vbrsi-0" value="CV" style="shape=table;startSize=27;container=1;collapsible=0;childLayout=tableLayout;fixedRows=1;rowLines=0;fontStyle=1;align=center;pointerEvents=1;fillColor=#6a00ff;fontColor=#ffffff;strokeColor=#3700CC;" parent="NZ24hD41bVVt_TexhkNw-1" vertex="1">
                    <mxGeometry x="384" y="57" width="235" height="210.84" as="geometry"/>
                </mxCell>
                <mxCell id="ayO-XwdDbGL5or1vbrsi-1" value="" style="shape=partialRectangle;html=1;whiteSpace=wrap;collapsible=0;dropTarget=0;pointerEvents=1;fillColor=none;top=0;left=0;bottom=1;right=0;points=[[0,0.5],[1,0.5]];portConstraint=eastwest;" parent="ayO-XwdDbGL5or1vbrsi-0" vertex="1">
                    <mxGeometry y="27" width="235" height="30" as="geometry"/>
                </mxCell>
                <mxCell id="ayO-XwdDbGL5or1vbrsi-2" value="ID" style="shape=partialRectangle;html=1;whiteSpace=wrap;connectable=0;fillColor=none;top=0;left=0;bottom=0;right=0;overflow=hidden;pointerEvents=1;" parent="ayO-XwdDbGL5or1vbrsi-1" vertex="1">
                    <mxGeometry width="40" height="30" as="geometry">
                        <mxRectangle width="40" height="30" as="alternateBounds"/>
                    </mxGeometry>
                </mxCell>
                <mxCell id="ayO-XwdDbGL5or1vbrsi-3" value="id_CV" style="shape=partialRectangle;html=1;whiteSpace=wrap;connectable=0;fillColor=none;top=0;left=0;bottom=0;right=0;align=left;spacingLeft=6;overflow=hidden;pointerEvents=1;" parent="ayO-XwdDbGL5or1vbrsi-1" vertex="1">
                    <mxGeometry x="40" width="195" height="30" as="geometry">
                        <mxRectangle width="195" height="30" as="alternateBounds"/>
                    </mxGeometry>
                </mxCell>
                <mxCell id="ayO-XwdDbGL5or1vbrsi-4" value="" style="shape=partialRectangle;html=1;whiteSpace=wrap;collapsible=0;dropTarget=0;pointerEvents=1;fillColor=none;top=0;left=0;bottom=0;right=0;points=[[0,0.5],[1,0.5]];portConstraint=eastwest;" parent="ayO-XwdDbGL5or1vbrsi-0" vertex="1">
                    <mxGeometry y="57" width="235" height="121" as="geometry"/>
                </mxCell>
                <mxCell id="ayO-XwdDbGL5or1vbrsi-5" value="" style="shape=partialRectangle;html=1;whiteSpace=wrap;connectable=0;fillColor=none;top=0;left=0;bottom=0;right=0;overflow=hidden;pointerEvents=1;" parent="ayO-XwdDbGL5or1vbrsi-4" vertex="1">
                    <mxGeometry width="40" height="121" as="geometry">
                        <mxRectangle width="40" height="121" as="alternateBounds"/>
                    </mxGeometry>
                </mxCell>
                <mxCell id="ayO-XwdDbGL5or1vbrsi-6" value="Intitule (varchar 64)&lt;br&gt;Version (varchar 4)&lt;br&gt;created_at (datetime)&lt;br&gt;modified_at (datetime)&lt;br&gt;backgroundColor (varchar 30)&lt;br&gt;&lt;br&gt;" style="shape=partialRectangle;html=1;whiteSpace=wrap;connectable=0;fillColor=none;top=0;left=0;bottom=0;right=0;align=left;spacingLeft=6;overflow=hidden;pointerEvents=1;" parent="ayO-XwdDbGL5or1vbrsi-4" vertex="1">
                    <mxGeometry x="40" width="195" height="121" as="geometry">
                        <mxRectangle width="195" height="121" as="alternateBounds"/>
                    </mxGeometry>
                </mxCell>
                <mxCell id="PbSK438inqVWAlEwqOTO-0" value="Hobbies" style="shape=table;startSize=41;container=1;collapsible=0;childLayout=tableLayout;fixedRows=1;rowLines=0;fontStyle=1;align=center;pointerEvents=1;fillColor=#d0cee2;strokeColor=#56517e;fontColor=#000000;rounded=1;" parent="NZ24hD41bVVt_TexhkNw-1" vertex="1">
                    <mxGeometry x="566" y="-175" width="228" height="125" as="geometry"/>
                </mxCell>
                <mxCell id="PbSK438inqVWAlEwqOTO-1" value="" style="shape=partialRectangle;html=1;whiteSpace=wrap;collapsible=0;dropTarget=0;pointerEvents=1;fillColor=none;top=0;left=0;bottom=1;right=0;points=[[0,0.5],[1,0.5]];portConstraint=eastwest;" parent="PbSK438inqVWAlEwqOTO-0" vertex="1">
                    <mxGeometry y="41" width="228" height="24" as="geometry"/>
                </mxCell>
                <mxCell id="PbSK438inqVWAlEwqOTO-2" value="ID" style="shape=partialRectangle;html=1;whiteSpace=wrap;connectable=0;fillColor=none;top=0;left=0;bottom=0;right=0;overflow=hidden;pointerEvents=1;" parent="PbSK438inqVWAlEwqOTO-1" vertex="1">
                    <mxGeometry width="32" height="24" as="geometry">
                        <mxRectangle width="32" height="24" as="alternateBounds"/>
                    </mxGeometry>
                </mxCell>
                <mxCell id="PbSK438inqVWAlEwqOTO-3" value="&lt;font face=&quot;monospace&quot; color=&quot;#ffffff&quot;&gt;&lt;span style=&quot;font-size: 12px&quot;&gt;id_hobby&lt;/span&gt;&lt;/font&gt;" style="shape=partialRectangle;html=1;whiteSpace=wrap;connectable=0;fillColor=none;top=0;left=0;bottom=0;right=0;align=left;spacingLeft=6;overflow=hidden;pointerEvents=1;" parent="PbSK438inqVWAlEwqOTO-1" vertex="1">
                    <mxGeometry x="32" width="196" height="24" as="geometry">
                        <mxRectangle width="196" height="24" as="alternateBounds"/>
                    </mxGeometry>
                </mxCell>
                <mxCell id="PbSK438inqVWAlEwqOTO-4" value="" style="shape=partialRectangle;html=1;whiteSpace=wrap;collapsible=0;dropTarget=0;pointerEvents=1;fillColor=none;top=0;left=0;bottom=0;right=0;points=[[0,0.5],[1,0.5]];portConstraint=eastwest;" parent="PbSK438inqVWAlEwqOTO-0" vertex="1">
                    <mxGeometry y="65" width="228" height="30" as="geometry"/>
                </mxCell>
                <mxCell id="PbSK438inqVWAlEwqOTO-5" value="" style="shape=partialRectangle;html=1;whiteSpace=wrap;connectable=0;fillColor=none;top=0;left=0;bottom=0;right=0;overflow=hidden;pointerEvents=1;" parent="PbSK438inqVWAlEwqOTO-4" vertex="1">
                    <mxGeometry width="32" height="30" as="geometry">
                        <mxRectangle width="32" height="30" as="alternateBounds"/>
                    </mxGeometry>
                </mxCell>
                <mxCell id="PbSK438inqVWAlEwqOTO-6" value="&lt;code class=&quot;sql&quot;&gt;&lt;font color=&quot;#ffffff&quot;&gt;description_hobby &lt;br&gt;(varchar 255)&lt;/font&gt;&lt;/code&gt;" style="shape=partialRectangle;html=1;whiteSpace=wrap;connectable=0;fillColor=none;top=0;left=0;bottom=0;right=0;align=left;spacingLeft=6;overflow=hidden;pointerEvents=1;" parent="PbSK438inqVWAlEwqOTO-4" vertex="1">
                    <mxGeometry x="32" width="196" height="30" as="geometry">
                        <mxRectangle width="196" height="30" as="alternateBounds"/>
                    </mxGeometry>
                </mxCell>
                <mxCell id="PbSK438inqVWAlEwqOTO-7" value="" style="shape=partialRectangle;html=1;whiteSpace=wrap;collapsible=0;dropTarget=0;pointerEvents=1;fillColor=none;top=0;left=0;bottom=0;right=0;points=[[0,0.5],[1,0.5]];portConstraint=eastwest;" parent="PbSK438inqVWAlEwqOTO-0" vertex="1">
                    <mxGeometry y="95" width="228" height="30" as="geometry"/>
                </mxCell>
                <mxCell id="PbSK438inqVWAlEwqOTO-8" value="" style="shape=partialRectangle;html=1;whiteSpace=wrap;connectable=0;fillColor=none;top=0;left=0;bottom=0;right=0;overflow=hidden;pointerEvents=1;" parent="PbSK438inqVWAlEwqOTO-7" vertex="1">
                    <mxGeometry width="32" height="30" as="geometry">
                        <mxRectangle width="32" height="30" as="alternateBounds"/>
                    </mxGeometry>
                </mxCell>
                <mxCell id="PbSK438inqVWAlEwqOTO-9" value="" style="shape=partialRectangle;html=1;whiteSpace=wrap;connectable=0;fillColor=none;top=0;left=0;bottom=0;right=0;align=left;spacingLeft=6;overflow=hidden;pointerEvents=1;" parent="PbSK438inqVWAlEwqOTO-7" vertex="1">
                    <mxGeometry x="32" width="196" height="30" as="geometry">
                        <mxRectangle width="196" height="30" as="alternateBounds"/>
                    </mxGeometry>
                </mxCell>
                <mxCell id="_KFFmQumqW6ChTbCH17B-0" value="loisir" style="shape=table;startSize=27;container=1;collapsible=0;childLayout=tableLayout;fixedRows=1;rowLines=0;fontStyle=1;align=center;pointerEvents=1;fillColor=#e51400;fontColor=#ffffff;strokeColor=#B20000;" parent="NZ24hD41bVVt_TexhkNw-1" vertex="1">
                    <mxGeometry x="593" y="-402" width="229" height="130" as="geometry"/>
                </mxCell>
                <mxCell id="_KFFmQumqW6ChTbCH17B-1" value="" style="shape=partialRectangle;html=1;whiteSpace=wrap;collapsible=0;dropTarget=0;pointerEvents=1;fillColor=none;top=0;left=0;bottom=1;right=0;points=[[0,0.5],[1,0.5]];portConstraint=eastwest;" parent="_KFFmQumqW6ChTbCH17B-0" vertex="1">
                    <mxGeometry y="27" width="229" height="30" as="geometry"/>
                </mxCell>
                <mxCell id="_KFFmQumqW6ChTbCH17B-2" value="ID" style="shape=partialRectangle;html=1;whiteSpace=wrap;connectable=0;fillColor=none;top=0;left=0;bottom=0;right=0;overflow=hidden;pointerEvents=1;" parent="_KFFmQumqW6ChTbCH17B-1" vertex="1">
                    <mxGeometry width="45" height="30" as="geometry">
                        <mxRectangle width="45" height="30" as="alternateBounds"/>
                    </mxGeometry>
                </mxCell>
                <mxCell id="_KFFmQumqW6ChTbCH17B-3" value="id_loisir" style="shape=partialRectangle;html=1;whiteSpace=wrap;connectable=0;fillColor=none;top=0;left=0;bottom=0;right=0;align=left;spacingLeft=6;overflow=hidden;pointerEvents=1;" parent="_KFFmQumqW6ChTbCH17B-1" vertex="1">
                    <mxGeometry x="45" width="184" height="30" as="geometry">
                        <mxRectangle width="184" height="30" as="alternateBounds"/>
                    </mxGeometry>
                </mxCell>
                <mxCell id="_KFFmQumqW6ChTbCH17B-4" value="" style="shape=partialRectangle;html=1;whiteSpace=wrap;collapsible=0;dropTarget=0;pointerEvents=1;fillColor=none;top=0;left=0;bottom=0;right=0;points=[[0,0.5],[1,0.5]];portConstraint=eastwest;" parent="_KFFmQumqW6ChTbCH17B-0" vertex="1">
                    <mxGeometry y="57" width="229" height="43" as="geometry"/>
                </mxCell>
                <mxCell id="_KFFmQumqW6ChTbCH17B-5" value="" style="shape=partialRectangle;html=1;whiteSpace=wrap;connectable=0;fillColor=none;top=0;left=0;bottom=0;right=0;overflow=hidden;pointerEvents=1;" parent="_KFFmQumqW6ChTbCH17B-4" vertex="1">
                    <mxGeometry width="45" height="43" as="geometry">
                        <mxRectangle width="45" height="43" as="alternateBounds"/>
                    </mxGeometry>
                </mxCell>
                <mxCell id="_KFFmQumqW6ChTbCH17B-6" value="&lt;br&gt;libelle_loisir (varchar 255)" style="shape=partialRectangle;html=1;whiteSpace=wrap;connectable=0;fillColor=none;top=0;left=0;bottom=0;right=0;align=left;spacingLeft=6;overflow=hidden;pointerEvents=1;" parent="_KFFmQumqW6ChTbCH17B-4" vertex="1">
                    <mxGeometry x="45" width="184" height="43" as="geometry">
                        <mxRectangle width="184" height="43" as="alternateBounds"/>
                    </mxGeometry>
                </mxCell>
                <mxCell id="_KFFmQumqW6ChTbCH17B-7" value="" style="shape=partialRectangle;html=1;whiteSpace=wrap;collapsible=0;dropTarget=0;pointerEvents=1;fillColor=none;top=0;left=0;bottom=0;right=0;points=[[0,0.5],[1,0.5]];portConstraint=eastwest;" parent="_KFFmQumqW6ChTbCH17B-0" vertex="1">
                    <mxGeometry y="100" width="229" height="30" as="geometry"/>
                </mxCell>
                <mxCell id="_KFFmQumqW6ChTbCH17B-8" value="" style="shape=partialRectangle;html=1;whiteSpace=wrap;connectable=0;fillColor=none;top=0;left=0;bottom=0;right=0;overflow=hidden;pointerEvents=1;" parent="_KFFmQumqW6ChTbCH17B-7" vertex="1">
                    <mxGeometry width="45" height="30" as="geometry">
                        <mxRectangle width="45" height="30" as="alternateBounds"/>
                    </mxGeometry>
                </mxCell>
                <mxCell id="_KFFmQumqW6ChTbCH17B-9" value="" style="shape=partialRectangle;html=1;whiteSpace=wrap;connectable=0;fillColor=none;top=0;left=0;bottom=0;right=0;align=left;spacingLeft=6;overflow=hidden;pointerEvents=1;" parent="_KFFmQumqW6ChTbCH17B-7" vertex="1">
                    <mxGeometry x="45" width="184" height="30" as="geometry">
                        <mxRectangle width="184" height="30" as="alternateBounds"/>
                    </mxGeometry>
                </mxCell>
                <mxCell id="ZRAN-U3p6ZM3RGhGnWkc-0" value="cv_langue" style="shape=table;startSize=34;container=1;collapsible=0;childLayout=tableLayout;fixedRows=1;rowLines=0;fontStyle=1;align=center;pointerEvents=1;fillColor=#d0cee2;strokeColor=#56517e;rounded=1;arcSize=19;fontColor=#000000;" parent="NZ24hD41bVVt_TexhkNw-1" vertex="1">
                    <mxGeometry x="352" y="-238" width="141" height="142" as="geometry"/>
                </mxCell>
                <mxCell id="ZRAN-U3p6ZM3RGhGnWkc-1" value="" style="shape=partialRectangle;html=1;whiteSpace=wrap;collapsible=0;dropTarget=0;pointerEvents=1;fillColor=none;top=0;left=0;bottom=1;right=0;points=[[0,0.5],[1,0.5]];portConstraint=eastwest;" parent="ZRAN-U3p6ZM3RGhGnWkc-0" vertex="1">
                    <mxGeometry y="34" width="141" height="30" as="geometry"/>
                </mxCell>
                <mxCell id="ZRAN-U3p6ZM3RGhGnWkc-2" value="ID" style="shape=partialRectangle;html=1;whiteSpace=wrap;connectable=0;fillColor=none;top=0;left=0;bottom=0;right=0;overflow=hidden;pointerEvents=1;" parent="ZRAN-U3p6ZM3RGhGnWkc-1" vertex="1">
                    <mxGeometry width="31" height="30" as="geometry">
                        <mxRectangle width="31" height="30" as="alternateBounds"/>
                    </mxGeometry>
                </mxCell>
                <mxCell id="ZRAN-U3p6ZM3RGhGnWkc-3" value="&lt;code class=&quot;sql&quot;&gt;&lt;font color=&quot;#ffffff&quot;&gt;id_langue&lt;/font&gt;&lt;/code&gt;" style="shape=partialRectangle;html=1;whiteSpace=wrap;connectable=0;fillColor=none;top=0;left=0;bottom=0;right=0;align=left;spacingLeft=6;overflow=hidden;pointerEvents=1;" parent="ZRAN-U3p6ZM3RGhGnWkc-1" vertex="1">
                    <mxGeometry x="31" width="110" height="30" as="geometry">
                        <mxRectangle width="110" height="30" as="alternateBounds"/>
                    </mxGeometry>
                </mxCell>
                <mxCell id="ZRAN-U3p6ZM3RGhGnWkc-4" value="" style="shape=partialRectangle;html=1;whiteSpace=wrap;collapsible=0;dropTarget=0;pointerEvents=1;fillColor=none;top=0;left=0;bottom=0;right=0;points=[[0,0.5],[1,0.5]];portConstraint=eastwest;" parent="ZRAN-U3p6ZM3RGhGnWkc-0" vertex="1">
                    <mxGeometry y="64" width="141" height="48" as="geometry"/>
                </mxCell>
                <mxCell id="ZRAN-U3p6ZM3RGhGnWkc-5" value="" style="shape=partialRectangle;html=1;whiteSpace=wrap;connectable=0;fillColor=none;top=0;left=0;bottom=0;right=0;overflow=hidden;pointerEvents=1;" parent="ZRAN-U3p6ZM3RGhGnWkc-4" vertex="1">
                    <mxGeometry width="31" height="48" as="geometry">
                        <mxRectangle width="31" height="48" as="alternateBounds"/>
                    </mxGeometry>
                </mxCell>
                <mxCell id="ZRAN-U3p6ZM3RGhGnWkc-6" value="Niveau varchar(10)" style="shape=partialRectangle;html=1;whiteSpace=wrap;connectable=0;fillColor=none;top=0;left=0;bottom=0;right=0;align=left;spacingLeft=6;overflow=hidden;pointerEvents=1;" parent="ZRAN-U3p6ZM3RGhGnWkc-4" vertex="1">
                    <mxGeometry x="31" width="110" height="48" as="geometry">
                        <mxRectangle width="110" height="48" as="alternateBounds"/>
                    </mxGeometry>
                </mxCell>
                <mxCell id="ZRAN-U3p6ZM3RGhGnWkc-7" value="" style="shape=partialRectangle;html=1;whiteSpace=wrap;collapsible=0;dropTarget=0;pointerEvents=1;fillColor=none;top=0;left=0;bottom=0;right=0;points=[[0,0.5],[1,0.5]];portConstraint=eastwest;" parent="ZRAN-U3p6ZM3RGhGnWkc-0" vertex="1">
                    <mxGeometry y="112" width="141" height="30" as="geometry"/>
                </mxCell>
                <mxCell id="ZRAN-U3p6ZM3RGhGnWkc-8" value="" style="shape=partialRectangle;html=1;whiteSpace=wrap;connectable=0;fillColor=none;top=0;left=0;bottom=0;right=0;overflow=hidden;pointerEvents=1;" parent="ZRAN-U3p6ZM3RGhGnWkc-7" vertex="1">
                    <mxGeometry width="31" height="30" as="geometry">
                        <mxRectangle width="31" height="30" as="alternateBounds"/>
                    </mxGeometry>
                </mxCell>
                <mxCell id="ZRAN-U3p6ZM3RGhGnWkc-9" value="" style="shape=partialRectangle;html=1;whiteSpace=wrap;connectable=0;fillColor=none;top=0;left=0;bottom=0;right=0;align=left;spacingLeft=6;overflow=hidden;pointerEvents=1;" parent="ZRAN-U3p6ZM3RGhGnWkc-7" vertex="1">
                    <mxGeometry x="31" width="110" height="30" as="geometry">
                        <mxRectangle width="110" height="30" as="alternateBounds"/>
                    </mxGeometry>
                </mxCell>
                <mxCell id="1zkMCLK5u_mCet8t2XoT-0" value="Langues" style="shape=table;startSize=35;container=1;collapsible=0;childLayout=tableLayout;fixedRows=1;rowLines=0;fontStyle=1;align=center;pointerEvents=1;fillColor=#e51400;fontColor=#ffffff;strokeColor=#B20000;" parent="NZ24hD41bVVt_TexhkNw-1" vertex="1">
                    <mxGeometry x="162" y="-440" width="223" height="149" as="geometry"/>
                </mxCell>
                <mxCell id="1zkMCLK5u_mCet8t2XoT-1" value="" style="shape=partialRectangle;html=1;whiteSpace=wrap;collapsible=0;dropTarget=0;pointerEvents=1;fillColor=none;top=0;left=0;bottom=1;right=0;points=[[0,0.5],[1,0.5]];portConstraint=eastwest;" parent="1zkMCLK5u_mCet8t2XoT-0" vertex="1">
                    <mxGeometry y="35" width="223" height="30" as="geometry"/>
                </mxCell>
                <mxCell id="1zkMCLK5u_mCet8t2XoT-2" value="ID" style="shape=partialRectangle;html=1;whiteSpace=wrap;connectable=0;fillColor=none;top=0;left=0;bottom=0;right=0;overflow=hidden;pointerEvents=1;" parent="1zkMCLK5u_mCet8t2XoT-1" vertex="1">
                    <mxGeometry width="50" height="30" as="geometry">
                        <mxRectangle width="50" height="30" as="alternateBounds"/>
                    </mxGeometry>
                </mxCell>
                <mxCell id="1zkMCLK5u_mCet8t2XoT-3" value="id_langue" style="shape=partialRectangle;html=1;whiteSpace=wrap;connectable=0;fillColor=none;top=0;left=0;bottom=0;right=0;align=left;spacingLeft=6;overflow=hidden;pointerEvents=1;" parent="1zkMCLK5u_mCet8t2XoT-1" vertex="1">
                    <mxGeometry x="50" width="173" height="30" as="geometry">
                        <mxRectangle width="173" height="30" as="alternateBounds"/>
                    </mxGeometry>
                </mxCell>
                <mxCell id="1zkMCLK5u_mCet8t2XoT-4" value="" style="shape=partialRectangle;html=1;whiteSpace=wrap;collapsible=0;dropTarget=0;pointerEvents=1;fillColor=none;top=0;left=0;bottom=0;right=0;points=[[0,0.5],[1,0.5]];portConstraint=eastwest;" parent="1zkMCLK5u_mCet8t2XoT-0" vertex="1">
                    <mxGeometry y="65" width="223" height="54" as="geometry"/>
                </mxCell>
                <mxCell id="1zkMCLK5u_mCet8t2XoT-5" value="" style="shape=partialRectangle;html=1;whiteSpace=wrap;connectable=0;fillColor=none;top=0;left=0;bottom=0;right=0;overflow=hidden;pointerEvents=1;" parent="1zkMCLK5u_mCet8t2XoT-4" vertex="1">
                    <mxGeometry width="50" height="54" as="geometry">
                        <mxRectangle width="50" height="54" as="alternateBounds"/>
                    </mxGeometry>
                </mxCell>
                <mxCell id="1zkMCLK5u_mCet8t2XoT-6" value="&lt;code class=&quot;sql&quot;&gt;&lt;font color=&quot;#ffffff&quot;&gt;libelle_langue&lt;br&gt;(varchar 255)&lt;/font&gt;&lt;/code&gt;" style="shape=partialRectangle;html=1;whiteSpace=wrap;connectable=0;fillColor=none;top=0;left=0;bottom=0;right=0;align=left;spacingLeft=6;overflow=hidden;pointerEvents=1;" parent="1zkMCLK5u_mCet8t2XoT-4" vertex="1">
                    <mxGeometry x="50" width="173" height="54" as="geometry">
                        <mxRectangle width="173" height="54" as="alternateBounds"/>
                    </mxGeometry>
                </mxCell>
                <mxCell id="1zkMCLK5u_mCet8t2XoT-7" value="" style="shape=partialRectangle;html=1;whiteSpace=wrap;collapsible=0;dropTarget=0;pointerEvents=1;fillColor=none;top=0;left=0;bottom=0;right=0;points=[[0,0.5],[1,0.5]];portConstraint=eastwest;" parent="1zkMCLK5u_mCet8t2XoT-0" vertex="1">
                    <mxGeometry y="119" width="223" height="30" as="geometry"/>
                </mxCell>
                <mxCell id="1zkMCLK5u_mCet8t2XoT-8" value="" style="shape=partialRectangle;html=1;whiteSpace=wrap;connectable=0;fillColor=none;top=0;left=0;bottom=0;right=0;overflow=hidden;pointerEvents=1;" parent="1zkMCLK5u_mCet8t2XoT-7" vertex="1">
                    <mxGeometry width="50" height="30" as="geometry">
                        <mxRectangle width="50" height="30" as="alternateBounds"/>
                    </mxGeometry>
                </mxCell>
                <mxCell id="1zkMCLK5u_mCet8t2XoT-9" value="" style="shape=partialRectangle;html=1;whiteSpace=wrap;connectable=0;fillColor=none;top=0;left=0;bottom=0;right=0;align=left;spacingLeft=6;overflow=hidden;pointerEvents=1;" parent="1zkMCLK5u_mCet8t2XoT-7" vertex="1">
                    <mxGeometry x="50" width="173" height="30" as="geometry">
                        <mxRectangle width="173" height="30" as="alternateBounds"/>
                    </mxGeometry>
                </mxCell>
                <mxCell id="btA47OXqU7HjPLdY4TJe-0" value="SoftSkill" style="shape=table;startSize=30;container=1;collapsible=0;childLayout=tableLayout;fixedRows=1;rowLines=0;fontStyle=1;align=center;pointerEvents=1;fillColor=#e51400;fontColor=#ffffff;strokeColor=#B20000;" parent="NZ24hD41bVVt_TexhkNw-1" vertex="1">
                    <mxGeometry x="-64" y="-295" width="180" height="120" as="geometry"/>
                </mxCell>
                <mxCell id="btA47OXqU7HjPLdY4TJe-1" value="" style="shape=partialRectangle;html=1;whiteSpace=wrap;collapsible=0;dropTarget=0;pointerEvents=1;fillColor=none;top=0;left=0;bottom=1;right=0;points=[[0,0.5],[1,0.5]];portConstraint=eastwest;" parent="btA47OXqU7HjPLdY4TJe-0" vertex="1">
                    <mxGeometry y="30" width="180" height="30" as="geometry"/>
                </mxCell>
                <mxCell id="btA47OXqU7HjPLdY4TJe-2" value="ID" style="shape=partialRectangle;html=1;whiteSpace=wrap;connectable=0;fillColor=none;top=0;left=0;bottom=0;right=0;overflow=hidden;pointerEvents=1;" parent="btA47OXqU7HjPLdY4TJe-1" vertex="1">
                    <mxGeometry width="40" height="30" as="geometry">
                        <mxRectangle width="40" height="30" as="alternateBounds"/>
                    </mxGeometry>
                </mxCell>
                <mxCell id="btA47OXqU7HjPLdY4TJe-3" value="id_softskill" style="shape=partialRectangle;html=1;whiteSpace=wrap;connectable=0;fillColor=none;top=0;left=0;bottom=0;right=0;align=left;spacingLeft=6;overflow=hidden;pointerEvents=1;" parent="btA47OXqU7HjPLdY4TJe-1" vertex="1">
                    <mxGeometry x="40" width="140" height="30" as="geometry">
                        <mxRectangle width="140" height="30" as="alternateBounds"/>
                    </mxGeometry>
                </mxCell>
                <mxCell id="btA47OXqU7HjPLdY4TJe-4" value="" style="shape=partialRectangle;html=1;whiteSpace=wrap;collapsible=0;dropTarget=0;pointerEvents=1;fillColor=none;top=0;left=0;bottom=0;right=0;points=[[0,0.5],[1,0.5]];portConstraint=eastwest;" parent="btA47OXqU7HjPLdY4TJe-0" vertex="1">
                    <mxGeometry y="60" width="180" height="30" as="geometry"/>
                </mxCell>
                <mxCell id="btA47OXqU7HjPLdY4TJe-5" value="" style="shape=partialRectangle;html=1;whiteSpace=wrap;connectable=0;fillColor=none;top=0;left=0;bottom=0;right=0;overflow=hidden;pointerEvents=1;" parent="btA47OXqU7HjPLdY4TJe-4" vertex="1">
                    <mxGeometry width="40" height="30" as="geometry">
                        <mxRectangle width="40" height="30" as="alternateBounds"/>
                    </mxGeometry>
                </mxCell>
                <mxCell id="btA47OXqU7HjPLdY4TJe-6" value="libelle_softskill &lt;br&gt;(varchar 150)" style="shape=partialRectangle;html=1;whiteSpace=wrap;connectable=0;fillColor=none;top=0;left=0;bottom=0;right=0;align=left;spacingLeft=6;overflow=hidden;pointerEvents=1;" parent="btA47OXqU7HjPLdY4TJe-4" vertex="1">
                    <mxGeometry x="40" width="140" height="30" as="geometry">
                        <mxRectangle width="140" height="30" as="alternateBounds"/>
                    </mxGeometry>
                </mxCell>
                <mxCell id="btA47OXqU7HjPLdY4TJe-7" value="" style="shape=partialRectangle;html=1;whiteSpace=wrap;collapsible=0;dropTarget=0;pointerEvents=1;fillColor=none;top=0;left=0;bottom=0;right=0;points=[[0,0.5],[1,0.5]];portConstraint=eastwest;" parent="btA47OXqU7HjPLdY4TJe-0" vertex="1">
                    <mxGeometry y="90" width="180" height="30" as="geometry"/>
                </mxCell>
                <mxCell id="btA47OXqU7HjPLdY4TJe-8" value="" style="shape=partialRectangle;html=1;whiteSpace=wrap;connectable=0;fillColor=none;top=0;left=0;bottom=0;right=0;overflow=hidden;pointerEvents=1;" parent="btA47OXqU7HjPLdY4TJe-7" vertex="1">
                    <mxGeometry width="40" height="30" as="geometry">
                        <mxRectangle width="40" height="30" as="alternateBounds"/>
                    </mxGeometry>
                </mxCell>
                <mxCell id="btA47OXqU7HjPLdY4TJe-9" value="" style="shape=partialRectangle;html=1;whiteSpace=wrap;connectable=0;fillColor=none;top=0;left=0;bottom=0;right=0;align=left;spacingLeft=6;overflow=hidden;pointerEvents=1;" parent="btA47OXqU7HjPLdY4TJe-7" vertex="1">
                    <mxGeometry x="40" width="140" height="30" as="geometry">
                        <mxRectangle width="140" height="30" as="alternateBounds"/>
                    </mxGeometry>
                </mxCell>
                <mxCell id="aAhb1mRORmWq3ktMoKdN-0" value="Competence" style="shape=table;startSize=30;container=1;collapsible=0;childLayout=tableLayout;fixedRows=1;rowLines=0;fontStyle=1;align=center;pointerEvents=1;fillColor=#e51400;fontColor=#ffffff;strokeColor=#B20000;" parent="NZ24hD41bVVt_TexhkNw-1" vertex="1">
                    <mxGeometry x="-280" y="-84" width="182" height="124" as="geometry"/>
                </mxCell>
                <mxCell id="aAhb1mRORmWq3ktMoKdN-1" value="" style="shape=partialRectangle;html=1;whiteSpace=wrap;collapsible=0;dropTarget=0;pointerEvents=1;fillColor=none;top=0;left=0;bottom=1;right=0;points=[[0,0.5],[1,0.5]];portConstraint=eastwest;" parent="aAhb1mRORmWq3ktMoKdN-0" vertex="1">
                    <mxGeometry y="30" width="182" height="30" as="geometry"/>
                </mxCell>
                <mxCell id="aAhb1mRORmWq3ktMoKdN-2" value="ID" style="shape=partialRectangle;html=1;whiteSpace=wrap;connectable=0;fillColor=none;top=0;left=0;bottom=0;right=0;overflow=hidden;pointerEvents=1;" parent="aAhb1mRORmWq3ktMoKdN-1" vertex="1">
                    <mxGeometry width="40" height="30" as="geometry">
                        <mxRectangle width="40" height="30" as="alternateBounds"/>
                    </mxGeometry>
                </mxCell>
                <mxCell id="aAhb1mRORmWq3ktMoKdN-3" value="&lt;code class=&quot;sql&quot;&gt;&lt;font color=&quot;#ffffff&quot;&gt;id_competence&lt;/font&gt;&lt;/code&gt;" style="shape=partialRectangle;html=1;whiteSpace=wrap;connectable=0;fillColor=none;top=0;left=0;bottom=0;right=0;align=left;spacingLeft=6;overflow=hidden;pointerEvents=1;" parent="aAhb1mRORmWq3ktMoKdN-1" vertex="1">
                    <mxGeometry x="40" width="142" height="30" as="geometry">
                        <mxRectangle width="142" height="30" as="alternateBounds"/>
                    </mxGeometry>
                </mxCell>
                <mxCell id="aAhb1mRORmWq3ktMoKdN-4" value="" style="shape=partialRectangle;html=1;whiteSpace=wrap;collapsible=0;dropTarget=0;pointerEvents=1;fillColor=none;top=0;left=0;bottom=0;right=0;points=[[0,0.5],[1,0.5]];portConstraint=eastwest;" parent="aAhb1mRORmWq3ktMoKdN-0" vertex="1">
                    <mxGeometry y="60" width="182" height="30" as="geometry"/>
                </mxCell>
                <mxCell id="aAhb1mRORmWq3ktMoKdN-5" value="" style="shape=partialRectangle;html=1;whiteSpace=wrap;connectable=0;fillColor=none;top=0;left=0;bottom=0;right=0;overflow=hidden;pointerEvents=1;" parent="aAhb1mRORmWq3ktMoKdN-4" vertex="1">
                    <mxGeometry width="40" height="30" as="geometry">
                        <mxRectangle width="40" height="30" as="alternateBounds"/>
                    </mxGeometry>
                </mxCell>
                <mxCell id="aAhb1mRORmWq3ktMoKdN-6" value="&lt;span style=&quot;font-size: 12px&quot;&gt;libelle varchar(10)&lt;/span&gt;" style="shape=partialRectangle;html=1;whiteSpace=wrap;connectable=0;fillColor=none;top=0;left=0;bottom=0;right=0;align=left;spacingLeft=6;overflow=hidden;pointerEvents=1;" parent="aAhb1mRORmWq3ktMoKdN-4" vertex="1">
                    <mxGeometry x="40" width="142" height="30" as="geometry">
                        <mxRectangle width="142" height="30" as="alternateBounds"/>
                    </mxGeometry>
                </mxCell>
                <mxCell id="aAhb1mRORmWq3ktMoKdN-7" value="" style="shape=partialRectangle;html=1;whiteSpace=wrap;collapsible=0;dropTarget=0;pointerEvents=1;fillColor=none;top=0;left=0;bottom=0;right=0;points=[[0,0.5],[1,0.5]];portConstraint=eastwest;" parent="aAhb1mRORmWq3ktMoKdN-0" vertex="1">
                    <mxGeometry y="90" width="182" height="30" as="geometry"/>
                </mxCell>
                <mxCell id="aAhb1mRORmWq3ktMoKdN-8" value="" style="shape=partialRectangle;html=1;whiteSpace=wrap;connectable=0;fillColor=none;top=0;left=0;bottom=0;right=0;overflow=hidden;pointerEvents=1;" parent="aAhb1mRORmWq3ktMoKdN-7" vertex="1">
                    <mxGeometry width="40" height="30" as="geometry">
                        <mxRectangle width="40" height="30" as="alternateBounds"/>
                    </mxGeometry>
                </mxCell>
                <mxCell id="aAhb1mRORmWq3ktMoKdN-9" value="" style="shape=partialRectangle;html=1;whiteSpace=wrap;connectable=0;fillColor=none;top=0;left=0;bottom=0;right=0;align=left;spacingLeft=6;overflow=hidden;pointerEvents=1;" parent="aAhb1mRORmWq3ktMoKdN-7" vertex="1">
                    <mxGeometry x="40" width="142" height="30" as="geometry">
                        <mxRectangle width="142" height="30" as="alternateBounds"/>
                    </mxGeometry>
                </mxCell>
                <mxCell id="aAhb1mRORmWq3ktMoKdN-10" value="cv_softskill" style="shape=table;startSize=30;container=1;collapsible=0;childLayout=tableLayout;fixedRows=1;rowLines=0;fontStyle=1;align=center;pointerEvents=1;fillColor=#d0cee2;strokeColor=#56517e;rounded=1;fontColor=#000000;" parent="NZ24hD41bVVt_TexhkNw-1" vertex="1">
                    <mxGeometry x="171" y="-123" width="141" height="123" as="geometry"/>
                </mxCell>
                <mxCell id="aAhb1mRORmWq3ktMoKdN-11" value="" style="shape=partialRectangle;html=1;whiteSpace=wrap;collapsible=0;dropTarget=0;pointerEvents=1;fillColor=none;top=0;left=0;bottom=1;right=0;points=[[0,0.5],[1,0.5]];portConstraint=eastwest;" parent="aAhb1mRORmWq3ktMoKdN-10" vertex="1">
                    <mxGeometry y="30" width="141" height="33" as="geometry"/>
                </mxCell>
                <mxCell id="aAhb1mRORmWq3ktMoKdN-12" value="ID" style="shape=partialRectangle;html=1;whiteSpace=wrap;connectable=0;fillColor=none;top=0;left=0;bottom=0;right=0;overflow=hidden;pointerEvents=1;" parent="aAhb1mRORmWq3ktMoKdN-11" vertex="1">
                    <mxGeometry width="31" height="33" as="geometry">
                        <mxRectangle width="31" height="33" as="alternateBounds"/>
                    </mxGeometry>
                </mxCell>
                <mxCell id="aAhb1mRORmWq3ktMoKdN-13" value="id_softskill" style="shape=partialRectangle;html=1;whiteSpace=wrap;connectable=0;fillColor=none;top=0;left=0;bottom=0;right=0;align=left;spacingLeft=6;overflow=hidden;pointerEvents=1;" parent="aAhb1mRORmWq3ktMoKdN-11" vertex="1">
                    <mxGeometry x="31" width="110" height="33" as="geometry">
                        <mxRectangle width="110" height="33" as="alternateBounds"/>
                    </mxGeometry>
                </mxCell>
                <mxCell id="aAhb1mRORmWq3ktMoKdN-14" value="" style="shape=partialRectangle;html=1;whiteSpace=wrap;collapsible=0;dropTarget=0;pointerEvents=1;fillColor=none;top=0;left=0;bottom=0;right=0;points=[[0,0.5],[1,0.5]];portConstraint=eastwest;" parent="aAhb1mRORmWq3ktMoKdN-10" vertex="1">
                    <mxGeometry y="63" width="141" height="30" as="geometry"/>
                </mxCell>
                <mxCell id="aAhb1mRORmWq3ktMoKdN-15" value="" style="shape=partialRectangle;html=1;whiteSpace=wrap;connectable=0;fillColor=none;top=0;left=0;bottom=0;right=0;overflow=hidden;pointerEvents=1;" parent="aAhb1mRORmWq3ktMoKdN-14" vertex="1">
                    <mxGeometry width="31" height="30" as="geometry">
                        <mxRectangle width="31" height="30" as="alternateBounds"/>
                    </mxGeometry>
                </mxCell>
                <mxCell id="aAhb1mRORmWq3ktMoKdN-16" value="libelle_softskill (varchar 100)" style="shape=partialRectangle;html=1;whiteSpace=wrap;connectable=0;fillColor=none;top=0;left=0;bottom=0;right=0;align=left;spacingLeft=6;overflow=hidden;pointerEvents=1;" parent="aAhb1mRORmWq3ktMoKdN-14" vertex="1">
                    <mxGeometry x="31" width="110" height="30" as="geometry">
                        <mxRectangle width="110" height="30" as="alternateBounds"/>
                    </mxGeometry>
                </mxCell>
                <mxCell id="aAhb1mRORmWq3ktMoKdN-17" value="" style="shape=partialRectangle;html=1;whiteSpace=wrap;collapsible=0;dropTarget=0;pointerEvents=1;fillColor=none;top=0;left=0;bottom=0;right=0;points=[[0,0.5],[1,0.5]];portConstraint=eastwest;" parent="aAhb1mRORmWq3ktMoKdN-10" vertex="1">
                    <mxGeometry y="93" width="141" height="30" as="geometry"/>
                </mxCell>
                <mxCell id="aAhb1mRORmWq3ktMoKdN-18" value="" style="shape=partialRectangle;html=1;whiteSpace=wrap;connectable=0;fillColor=none;top=0;left=0;bottom=0;right=0;overflow=hidden;pointerEvents=1;" parent="aAhb1mRORmWq3ktMoKdN-17" vertex="1">
                    <mxGeometry width="31" height="30" as="geometry">
                        <mxRectangle width="31" height="30" as="alternateBounds"/>
                    </mxGeometry>
                </mxCell>
                <mxCell id="aAhb1mRORmWq3ktMoKdN-19" value="" style="shape=partialRectangle;html=1;whiteSpace=wrap;connectable=0;fillColor=none;top=0;left=0;bottom=0;right=0;align=left;spacingLeft=6;overflow=hidden;pointerEvents=1;" parent="aAhb1mRORmWq3ktMoKdN-17" vertex="1">
                    <mxGeometry x="31" width="110" height="30" as="geometry">
                        <mxRectangle width="110" height="30" as="alternateBounds"/>
                    </mxGeometry>
                </mxCell>
                <mxCell id="aAhb1mRORmWq3ktMoKdN-20" value="nfj_cv_competences" style="shape=table;startSize=30;container=1;collapsible=0;childLayout=tableLayout;fixedRows=1;rowLines=0;fontStyle=1;align=center;pointerEvents=1;fillColor=#d0cee2;strokeColor=#56517e;rounded=1;fontColor=#000000;" parent="NZ24hD41bVVt_TexhkNw-1" vertex="1">
                    <mxGeometry x="-20" y="28" width="222" height="133" as="geometry"/>
                </mxCell>
                <mxCell id="aAhb1mRORmWq3ktMoKdN-21" value="" style="shape=partialRectangle;html=1;whiteSpace=wrap;collapsible=0;dropTarget=0;pointerEvents=1;fillColor=none;top=0;left=0;bottom=1;right=0;points=[[0,0.5],[1,0.5]];portConstraint=eastwest;" parent="aAhb1mRORmWq3ktMoKdN-20" vertex="1">
                    <mxGeometry y="30" width="222" height="30" as="geometry"/>
                </mxCell>
                <mxCell id="aAhb1mRORmWq3ktMoKdN-22" value="ID" style="shape=partialRectangle;html=1;whiteSpace=wrap;connectable=0;fillColor=none;top=0;left=0;bottom=0;right=0;overflow=hidden;pointerEvents=1;" parent="aAhb1mRORmWq3ktMoKdN-21" vertex="1">
                    <mxGeometry width="48" height="30" as="geometry">
                        <mxRectangle width="48" height="30" as="alternateBounds"/>
                    </mxGeometry>
                </mxCell>
                <mxCell id="aAhb1mRORmWq3ktMoKdN-23" value="nfj_cv_competences" style="shape=partialRectangle;html=1;whiteSpace=wrap;connectable=0;fillColor=none;top=0;left=0;bottom=0;right=0;align=left;spacingLeft=6;overflow=hidden;pointerEvents=1;" parent="aAhb1mRORmWq3ktMoKdN-21" vertex="1">
                    <mxGeometry x="48" width="174" height="30" as="geometry">
                        <mxRectangle width="174" height="30" as="alternateBounds"/>
                    </mxGeometry>
                </mxCell>
                <mxCell id="aAhb1mRORmWq3ktMoKdN-24" value="" style="shape=partialRectangle;html=1;whiteSpace=wrap;collapsible=0;dropTarget=0;pointerEvents=1;fillColor=none;top=0;left=0;bottom=0;right=0;points=[[0,0.5],[1,0.5]];portConstraint=eastwest;" parent="aAhb1mRORmWq3ktMoKdN-20" vertex="1">
                    <mxGeometry y="60" width="222" height="50" as="geometry"/>
                </mxCell>
                <mxCell id="aAhb1mRORmWq3ktMoKdN-25" value="" style="shape=partialRectangle;html=1;whiteSpace=wrap;connectable=0;fillColor=none;top=0;left=0;bottom=0;right=0;overflow=hidden;pointerEvents=1;" parent="aAhb1mRORmWq3ktMoKdN-24" vertex="1">
                    <mxGeometry width="48" height="50" as="geometry">
                        <mxRectangle width="48" height="50" as="alternateBounds"/>
                    </mxGeometry>
                </mxCell>
                <mxCell id="aAhb1mRORmWq3ktMoKdN-26" value="created_at (date)&lt;br&gt;&lt;span style=&quot;font-size: 12px&quot;&gt;niveau (int 2)&lt;/span&gt;&lt;br&gt;&lt;span style=&quot;font-size: 12px&quot;&gt;description (text)&lt;/span&gt;" style="shape=partialRectangle;html=1;whiteSpace=wrap;connectable=0;fillColor=none;top=0;left=0;bottom=0;right=0;align=left;spacingLeft=6;overflow=hidden;pointerEvents=1;" parent="aAhb1mRORmWq3ktMoKdN-24" vertex="1">
                    <mxGeometry x="48" width="174" height="50" as="geometry">
                        <mxRectangle width="174" height="50" as="alternateBounds"/>
                    </mxGeometry>
                </mxCell>
                <mxCell id="_IAP6_hS8GQyXqVgw28z-0" value="nfj_cv_emplacement" style="shape=table;startSize=58;container=1;collapsible=0;childLayout=tableLayout;fixedRows=1;rowLines=0;fontStyle=1;align=center;pointerEvents=1;fillColor=#d0cee2;strokeColor=#56517e;fontColor=#000000;rounded=1;" parent="NZ24hD41bVVt_TexhkNw-1" vertex="1">
                    <mxGeometry x="818" y="288" width="184" height="112.51430017807968" as="geometry"/>
                </mxCell>
                <mxCell id="_IAP6_hS8GQyXqVgw28z-1" value="" style="shape=partialRectangle;html=1;whiteSpace=wrap;collapsible=0;dropTarget=0;pointerEvents=1;fillColor=none;top=0;left=0;bottom=1;right=0;points=[[0,0.5],[1,0.5]];portConstraint=eastwest;" parent="_IAP6_hS8GQyXqVgw28z-0" vertex="1">
                    <mxGeometry y="58" width="184" height="24" as="geometry"/>
                </mxCell>
                <mxCell id="_IAP6_hS8GQyXqVgw28z-2" value="ID" style="shape=partialRectangle;html=1;whiteSpace=wrap;connectable=0;fillColor=none;top=0;left=0;bottom=0;right=0;overflow=hidden;pointerEvents=1;" parent="_IAP6_hS8GQyXqVgw28z-1" vertex="1">
                    <mxGeometry width="41" height="24" as="geometry">
                        <mxRectangle width="41" height="24" as="alternateBounds"/>
                    </mxGeometry>
                </mxCell>
                <mxCell id="_IAP6_hS8GQyXqVgw28z-3" value="&lt;code class=&quot;sql&quot;&gt;&lt;font color=&quot;#ffffff&quot;&gt;id_emplacement&lt;/font&gt;&lt;/code&gt;" style="shape=partialRectangle;html=1;whiteSpace=wrap;connectable=0;fillColor=none;top=0;left=0;bottom=0;right=0;align=left;spacingLeft=6;overflow=hidden;pointerEvents=1;" parent="_IAP6_hS8GQyXqVgw28z-1" vertex="1">
                    <mxGeometry x="41" width="143" height="24" as="geometry">
                        <mxRectangle width="143" height="24" as="alternateBounds"/>
                    </mxGeometry>
                </mxCell>
                <mxCell id="_IAP6_hS8GQyXqVgw28z-4" value="" style="shape=partialRectangle;html=1;whiteSpace=wrap;collapsible=0;dropTarget=0;pointerEvents=1;fillColor=none;top=0;left=0;bottom=0;right=0;points=[[0,0.5],[1,0.5]];portConstraint=eastwest;" parent="_IAP6_hS8GQyXqVgw28z-0" vertex="1">
                    <mxGeometry y="82" width="184" height="30" as="geometry"/>
                </mxCell>
                <mxCell id="_IAP6_hS8GQyXqVgw28z-5" value="" style="shape=partialRectangle;html=1;whiteSpace=wrap;connectable=0;fillColor=none;top=0;left=0;bottom=0;right=0;overflow=hidden;pointerEvents=1;" parent="_IAP6_hS8GQyXqVgw28z-4" vertex="1">
                    <mxGeometry width="41" height="30" as="geometry">
                        <mxRectangle width="41" height="30" as="alternateBounds"/>
                    </mxGeometry>
                </mxCell>
                <mxCell id="_IAP6_hS8GQyXqVgw28z-6" value="ReadyToWork (date)" style="shape=partialRectangle;html=1;whiteSpace=wrap;connectable=0;fillColor=none;top=0;left=0;bottom=0;right=0;align=left;spacingLeft=6;overflow=hidden;pointerEvents=1;" parent="_IAP6_hS8GQyXqVgw28z-4" vertex="1">
                    <mxGeometry x="41" width="143" height="30" as="geometry">
                        <mxRectangle width="143" height="30" as="alternateBounds"/>
                    </mxGeometry>
                </mxCell>
                <mxCell id="dFBFQeIwfvR6jytxC3AC-0" value="nfj_users" style="shape=table;startSize=36;container=1;collapsible=0;childLayout=tableLayout;fixedRows=1;rowLines=0;fontStyle=1;align=center;pointerEvents=1;fillColor=#d80073;fontColor=#ffffff;strokeColor=#A50040;" parent="NZ24hD41bVVt_TexhkNw-1" vertex="1">
                    <mxGeometry x="-251" y="202" width="181" height="126" as="geometry"/>
                </mxCell>
                <mxCell id="dFBFQeIwfvR6jytxC3AC-1" value="" style="shape=partialRectangle;html=1;whiteSpace=wrap;collapsible=0;dropTarget=0;pointerEvents=1;fillColor=none;top=0;left=0;bottom=1;right=0;points=[[0,0.5],[1,0.5]];portConstraint=eastwest;" parent="dFBFQeIwfvR6jytxC3AC-0" vertex="1">
                    <mxGeometry y="36" width="181" height="30" as="geometry"/>
                </mxCell>
                <mxCell id="dFBFQeIwfvR6jytxC3AC-2" value="ID" style="shape=partialRectangle;html=1;whiteSpace=wrap;connectable=0;fillColor=none;top=0;left=0;bottom=0;right=0;overflow=hidden;pointerEvents=1;" parent="dFBFQeIwfvR6jytxC3AC-1" vertex="1">
                    <mxGeometry width="44" height="30" as="geometry">
                        <mxRectangle width="44" height="30" as="alternateBounds"/>
                    </mxGeometry>
                </mxCell>
                <mxCell id="dFBFQeIwfvR6jytxC3AC-3" value="Id_user" style="shape=partialRectangle;html=1;whiteSpace=wrap;connectable=0;fillColor=none;top=0;left=0;bottom=0;right=0;align=left;spacingLeft=6;overflow=hidden;pointerEvents=1;" parent="dFBFQeIwfvR6jytxC3AC-1" vertex="1">
                    <mxGeometry x="44" width="137" height="30" as="geometry">
                        <mxRectangle width="137" height="30" as="alternateBounds"/>
                    </mxGeometry>
                </mxCell>
                <mxCell id="dFBFQeIwfvR6jytxC3AC-4" value="" style="shape=partialRectangle;html=1;whiteSpace=wrap;collapsible=0;dropTarget=0;pointerEvents=1;fillColor=none;top=0;left=0;bottom=0;right=0;points=[[0,0.5],[1,0.5]];portConstraint=eastwest;" parent="dFBFQeIwfvR6jytxC3AC-0" vertex="1">
                    <mxGeometry y="66" width="181" height="30" as="geometry"/>
                </mxCell>
                <mxCell id="dFBFQeIwfvR6jytxC3AC-5" value="" style="shape=partialRectangle;html=1;whiteSpace=wrap;connectable=0;fillColor=none;top=0;left=0;bottom=0;right=0;overflow=hidden;pointerEvents=1;" parent="dFBFQeIwfvR6jytxC3AC-4" vertex="1">
                    <mxGeometry width="44" height="30" as="geometry">
                        <mxRectangle width="44" height="30" as="alternateBounds"/>
                    </mxGeometry>
                </mxCell>
                <mxCell id="dFBFQeIwfvR6jytxC3AC-6" value="Table Word Press" style="shape=partialRectangle;html=1;whiteSpace=wrap;connectable=0;fillColor=none;top=0;left=0;bottom=0;right=0;align=left;spacingLeft=6;overflow=hidden;pointerEvents=1;" parent="dFBFQeIwfvR6jytxC3AC-4" vertex="1">
                    <mxGeometry x="44" width="137" height="30" as="geometry">
                        <mxRectangle width="137" height="30" as="alternateBounds"/>
                    </mxGeometry>
                </mxCell>
                <mxCell id="dFBFQeIwfvR6jytxC3AC-7" value="" style="shape=partialRectangle;html=1;whiteSpace=wrap;collapsible=0;dropTarget=0;pointerEvents=1;fillColor=none;top=0;left=0;bottom=0;right=0;points=[[0,0.5],[1,0.5]];portConstraint=eastwest;" parent="dFBFQeIwfvR6jytxC3AC-0" vertex="1">
                    <mxGeometry y="96" width="181" height="30" as="geometry"/>
                </mxCell>
                <mxCell id="dFBFQeIwfvR6jytxC3AC-8" value="" style="shape=partialRectangle;html=1;whiteSpace=wrap;connectable=0;fillColor=none;top=0;left=0;bottom=0;right=0;overflow=hidden;pointerEvents=1;" parent="dFBFQeIwfvR6jytxC3AC-7" vertex="1">
                    <mxGeometry width="44" height="30" as="geometry">
                        <mxRectangle width="44" height="30" as="alternateBounds"/>
                    </mxGeometry>
                </mxCell>
                <mxCell id="dFBFQeIwfvR6jytxC3AC-9" value="" style="shape=partialRectangle;html=1;whiteSpace=wrap;connectable=0;fillColor=none;top=0;left=0;bottom=0;right=0;align=left;spacingLeft=6;overflow=hidden;pointerEvents=1;" parent="dFBFQeIwfvR6jytxC3AC-7" vertex="1">
                    <mxGeometry x="44" width="137" height="30" as="geometry">
                        <mxRectangle width="137" height="30" as="alternateBounds"/>
                    </mxGeometry>
                </mxCell>
                <mxCell id="dFBFQeIwfvR6jytxC3AC-10" value="nfj_users" style="shape=table;startSize=36;container=1;collapsible=0;childLayout=tableLayout;fixedRows=1;rowLines=0;fontStyle=1;align=center;pointerEvents=1;fillColor=#d80073;fontColor=#ffffff;strokeColor=#A50040;" parent="NZ24hD41bVVt_TexhkNw-1" vertex="1">
                    <mxGeometry x="-257" y="357" width="181" height="126" as="geometry"/>
                </mxCell>
                <mxCell id="dFBFQeIwfvR6jytxC3AC-11" value="" style="shape=partialRectangle;html=1;whiteSpace=wrap;collapsible=0;dropTarget=0;pointerEvents=1;fillColor=none;top=0;left=0;bottom=1;right=0;points=[[0,0.5],[1,0.5]];portConstraint=eastwest;" parent="dFBFQeIwfvR6jytxC3AC-10" vertex="1">
                    <mxGeometry y="36" width="181" height="30" as="geometry"/>
                </mxCell>
                <mxCell id="dFBFQeIwfvR6jytxC3AC-12" value="ID" style="shape=partialRectangle;html=1;whiteSpace=wrap;connectable=0;fillColor=none;top=0;left=0;bottom=0;right=0;overflow=hidden;pointerEvents=1;" parent="dFBFQeIwfvR6jytxC3AC-11" vertex="1">
                    <mxGeometry width="44" height="30" as="geometry">
                        <mxRectangle width="44" height="30" as="alternateBounds"/>
                    </mxGeometry>
                </mxCell>
                <mxCell id="dFBFQeIwfvR6jytxC3AC-13" value="id_module" style="shape=partialRectangle;html=1;whiteSpace=wrap;connectable=0;fillColor=none;top=0;left=0;bottom=0;right=0;align=left;spacingLeft=6;overflow=hidden;pointerEvents=1;" parent="dFBFQeIwfvR6jytxC3AC-11" vertex="1">
                    <mxGeometry x="44" width="137" height="30" as="geometry">
                        <mxRectangle width="137" height="30" as="alternateBounds"/>
                    </mxGeometry>
                </mxCell>
                <mxCell id="dFBFQeIwfvR6jytxC3AC-14" value="" style="shape=partialRectangle;html=1;whiteSpace=wrap;collapsible=0;dropTarget=0;pointerEvents=1;fillColor=none;top=0;left=0;bottom=0;right=0;points=[[0,0.5],[1,0.5]];portConstraint=eastwest;" parent="dFBFQeIwfvR6jytxC3AC-10" vertex="1">
                    <mxGeometry y="66" width="181" height="30" as="geometry"/>
                </mxCell>
                <mxCell id="dFBFQeIwfvR6jytxC3AC-15" value="" style="shape=partialRectangle;html=1;whiteSpace=wrap;connectable=0;fillColor=none;top=0;left=0;bottom=0;right=0;overflow=hidden;pointerEvents=1;" parent="dFBFQeIwfvR6jytxC3AC-14" vertex="1">
                    <mxGeometry width="44" height="30" as="geometry">
                        <mxRectangle width="44" height="30" as="alternateBounds"/>
                    </mxGeometry>
                </mxCell>
                <mxCell id="dFBFQeIwfvR6jytxC3AC-16" value="Info CV" style="shape=partialRectangle;html=1;whiteSpace=wrap;connectable=0;fillColor=none;top=0;left=0;bottom=0;right=0;align=left;spacingLeft=6;overflow=hidden;pointerEvents=1;" parent="dFBFQeIwfvR6jytxC3AC-14" vertex="1">
                    <mxGeometry x="44" width="137" height="30" as="geometry">
                        <mxRectangle width="137" height="30" as="alternateBounds"/>
                    </mxGeometry>
                </mxCell>
                <mxCell id="dFBFQeIwfvR6jytxC3AC-17" value="" style="shape=partialRectangle;html=1;whiteSpace=wrap;collapsible=0;dropTarget=0;pointerEvents=1;fillColor=none;top=0;left=0;bottom=0;right=0;points=[[0,0.5],[1,0.5]];portConstraint=eastwest;" parent="dFBFQeIwfvR6jytxC3AC-10" vertex="1">
                    <mxGeometry y="96" width="181" height="30" as="geometry"/>
                </mxCell>
                <mxCell id="dFBFQeIwfvR6jytxC3AC-18" value="" style="shape=partialRectangle;html=1;whiteSpace=wrap;connectable=0;fillColor=none;top=0;left=0;bottom=0;right=0;overflow=hidden;pointerEvents=1;" parent="dFBFQeIwfvR6jytxC3AC-17" vertex="1">
                    <mxGeometry width="44" height="30" as="geometry">
                        <mxRectangle width="44" height="30" as="alternateBounds"/>
                    </mxGeometry>
                </mxCell>
                <mxCell id="dFBFQeIwfvR6jytxC3AC-19" value="" style="shape=partialRectangle;html=1;whiteSpace=wrap;connectable=0;fillColor=none;top=0;left=0;bottom=0;right=0;align=left;spacingLeft=6;overflow=hidden;pointerEvents=1;" parent="dFBFQeIwfvR6jytxC3AC-17" vertex="1">
                    <mxGeometry x="44" width="137" height="30" as="geometry">
                        <mxRectangle width="137" height="30" as="alternateBounds"/>
                    </mxGeometry>
                </mxCell>
                <mxCell id="zik9dK_EfALcT01HA7fP-0" value="&lt;font style=&quot;font-size: 17px&quot;&gt;possède&lt;/font&gt;" style="ellipse;whiteSpace=wrap;html=1;fillColor=none;gradientColor=none;" parent="NZ24hD41bVVt_TexhkNw-1" vertex="1">
                    <mxGeometry x="12" y="198" width="139" height="46" as="geometry"/>
                </mxCell>
                <mxCell id="zik9dK_EfALcT01HA7fP-1" value="&lt;font style=&quot;font-size: 17px&quot;&gt;dispose&lt;/font&gt;" style="ellipse;whiteSpace=wrap;html=1;fillColor=none;gradientColor=none;" parent="NZ24hD41bVVt_TexhkNw-1" vertex="1">
                    <mxGeometry x="91" y="277" width="139" height="46" as="geometry"/>
                </mxCell>
                <mxCell id="pqFCJquyYfx5Mul4W1ZP-0" value="nfj_emplacement" style="shape=table;startSize=30;container=1;collapsible=0;childLayout=tableLayout;fixedRows=1;rowLines=0;fontStyle=1;align=center;pointerEvents=1;fillColor=#008a00;strokeColor=#005700;fontColor=#ffffff;" parent="NZ24hD41bVVt_TexhkNw-1" vertex="1">
                    <mxGeometry x="1093" y="439" width="180" height="150" as="geometry"/>
                </mxCell>
                <mxCell id="pqFCJquyYfx5Mul4W1ZP-1" value="" style="shape=partialRectangle;html=1;whiteSpace=wrap;collapsible=0;dropTarget=0;pointerEvents=1;fillColor=none;top=0;left=0;bottom=1;right=0;points=[[0,0.5],[1,0.5]];portConstraint=eastwest;" parent="pqFCJquyYfx5Mul4W1ZP-0" vertex="1">
                    <mxGeometry y="30" width="180" height="30" as="geometry"/>
                </mxCell>
                <mxCell id="pqFCJquyYfx5Mul4W1ZP-2" value="ID" style="shape=partialRectangle;html=1;whiteSpace=wrap;connectable=0;fillColor=none;top=0;left=0;bottom=0;right=0;overflow=hidden;pointerEvents=1;" parent="pqFCJquyYfx5Mul4W1ZP-1" vertex="1">
                    <mxGeometry width="40" height="30" as="geometry">
                        <mxRectangle width="40" height="30" as="alternateBounds"/>
                    </mxGeometry>
                </mxCell>
                <mxCell id="pqFCJquyYfx5Mul4W1ZP-3" value="id_emplacement" style="shape=partialRectangle;html=1;whiteSpace=wrap;connectable=0;fillColor=none;top=0;left=0;bottom=0;right=0;align=left;spacingLeft=6;overflow=hidden;pointerEvents=1;" parent="pqFCJquyYfx5Mul4W1ZP-1" vertex="1">
                    <mxGeometry x="40" width="140" height="30" as="geometry">
                        <mxRectangle width="140" height="30" as="alternateBounds"/>
                    </mxGeometry>
                </mxCell>
                <mxCell id="pqFCJquyYfx5Mul4W1ZP-4" value="" style="shape=partialRectangle;html=1;whiteSpace=wrap;collapsible=0;dropTarget=0;pointerEvents=1;fillColor=none;top=0;left=0;bottom=0;right=0;points=[[0,0.5],[1,0.5]];portConstraint=eastwest;" parent="pqFCJquyYfx5Mul4W1ZP-0" vertex="1">
                    <mxGeometry y="60" width="180" height="30" as="geometry"/>
                </mxCell>
                <mxCell id="pqFCJquyYfx5Mul4W1ZP-5" value="" style="shape=partialRectangle;html=1;whiteSpace=wrap;connectable=0;fillColor=none;top=0;left=0;bottom=0;right=0;overflow=hidden;pointerEvents=1;" parent="pqFCJquyYfx5Mul4W1ZP-4" vertex="1">
                    <mxGeometry width="40" height="30" as="geometry">
                        <mxRectangle width="40" height="30" as="alternateBounds"/>
                    </mxGeometry>
                </mxCell>
                <mxCell id="pqFCJquyYfx5Mul4W1ZP-6" value="Ville" style="shape=partialRectangle;html=1;whiteSpace=wrap;connectable=0;fillColor=none;top=0;left=0;bottom=0;right=0;align=left;spacingLeft=6;overflow=hidden;pointerEvents=1;" parent="pqFCJquyYfx5Mul4W1ZP-4" vertex="1">
                    <mxGeometry x="40" width="140" height="30" as="geometry">
                        <mxRectangle width="140" height="30" as="alternateBounds"/>
                    </mxGeometry>
                </mxCell>
                <mxCell id="pqFCJquyYfx5Mul4W1ZP-7" value="" style="shape=partialRectangle;html=1;whiteSpace=wrap;collapsible=0;dropTarget=0;pointerEvents=1;fillColor=none;top=0;left=0;bottom=0;right=0;points=[[0,0.5],[1,0.5]];portConstraint=eastwest;" parent="pqFCJquyYfx5Mul4W1ZP-0" vertex="1">
                    <mxGeometry y="90" width="180" height="30" as="geometry"/>
                </mxCell>
                <mxCell id="pqFCJquyYfx5Mul4W1ZP-8" value="" style="shape=partialRectangle;html=1;whiteSpace=wrap;connectable=0;fillColor=none;top=0;left=0;bottom=0;right=0;overflow=hidden;pointerEvents=1;" parent="pqFCJquyYfx5Mul4W1ZP-7" vertex="1">
                    <mxGeometry width="40" height="30" as="geometry">
                        <mxRectangle width="40" height="30" as="alternateBounds"/>
                    </mxGeometry>
                </mxCell>
                <mxCell id="pqFCJquyYfx5Mul4W1ZP-9" value="CP&lt;br&gt;departement" style="shape=partialRectangle;html=1;whiteSpace=wrap;connectable=0;fillColor=none;top=0;left=0;bottom=0;right=0;align=left;spacingLeft=6;overflow=hidden;pointerEvents=1;" parent="pqFCJquyYfx5Mul4W1ZP-7" vertex="1">
                    <mxGeometry x="40" width="140" height="30" as="geometry">
                        <mxRectangle width="140" height="30" as="alternateBounds"/>
                    </mxGeometry>
                </mxCell>
                <mxCell id="o-XNrfL8dhWcUojSUXnu-0" value="nfj_etablissement" style="shape=table;startSize=31;container=1;collapsible=0;childLayout=tableLayout;fixedRows=1;rowLines=0;fontStyle=1;align=center;pointerEvents=1;fillColor=#76608a;fontColor=#ffffff;strokeColor=#432D57;" parent="NZ24hD41bVVt_TexhkNw-1" vertex="1">
                    <mxGeometry x="617.5" y="373" width="180" height="117" as="geometry"/>
                </mxCell>
                <mxCell id="o-XNrfL8dhWcUojSUXnu-1" value="" style="shape=partialRectangle;html=1;whiteSpace=wrap;collapsible=0;dropTarget=0;pointerEvents=1;fillColor=none;top=0;left=0;bottom=1;right=0;points=[[0,0.5],[1,0.5]];portConstraint=eastwest;" parent="o-XNrfL8dhWcUojSUXnu-0" vertex="1">
                    <mxGeometry y="31" width="180" height="30" as="geometry"/>
                </mxCell>
                <mxCell id="o-XNrfL8dhWcUojSUXnu-2" value="ID" style="shape=partialRectangle;html=1;whiteSpace=wrap;connectable=0;fillColor=none;top=0;left=0;bottom=0;right=0;overflow=hidden;pointerEvents=1;" parent="o-XNrfL8dhWcUojSUXnu-1" vertex="1">
                    <mxGeometry width="40" height="30" as="geometry">
                        <mxRectangle width="40" height="30" as="alternateBounds"/>
                    </mxGeometry>
                </mxCell>
                <mxCell id="o-XNrfL8dhWcUojSUXnu-3" value="id_etablissement" style="shape=partialRectangle;html=1;whiteSpace=wrap;connectable=0;fillColor=none;top=0;left=0;bottom=0;right=0;align=left;spacingLeft=6;overflow=hidden;pointerEvents=1;" parent="o-XNrfL8dhWcUojSUXnu-1" vertex="1">
                    <mxGeometry x="40" width="140" height="30" as="geometry">
                        <mxRectangle width="140" height="30" as="alternateBounds"/>
                    </mxGeometry>
                </mxCell>
                <mxCell id="o-XNrfL8dhWcUojSUXnu-4" value="" style="shape=partialRectangle;html=1;whiteSpace=wrap;collapsible=0;dropTarget=0;pointerEvents=1;fillColor=none;top=0;left=0;bottom=0;right=0;points=[[0,0.5],[1,0.5]];portConstraint=eastwest;" parent="o-XNrfL8dhWcUojSUXnu-0" vertex="1">
                    <mxGeometry y="61" width="180" height="26" as="geometry"/>
                </mxCell>
                <mxCell id="o-XNrfL8dhWcUojSUXnu-5" value="" style="shape=partialRectangle;html=1;whiteSpace=wrap;connectable=0;fillColor=none;top=0;left=0;bottom=0;right=0;overflow=hidden;pointerEvents=1;" parent="o-XNrfL8dhWcUojSUXnu-4" vertex="1">
                    <mxGeometry width="40" height="26" as="geometry">
                        <mxRectangle width="40" height="26" as="alternateBounds"/>
                    </mxGeometry>
                </mxCell>
                <mxCell id="o-XNrfL8dhWcUojSUXnu-6" value="nom_etablissement" style="shape=partialRectangle;html=1;whiteSpace=wrap;connectable=0;fillColor=none;top=0;left=0;bottom=0;right=0;align=left;spacingLeft=6;overflow=hidden;pointerEvents=1;" parent="o-XNrfL8dhWcUojSUXnu-4" vertex="1">
                    <mxGeometry x="40" width="140" height="26" as="geometry">
                        <mxRectangle width="140" height="26" as="alternateBounds"/>
                    </mxGeometry>
                </mxCell>
                <mxCell id="o-XNrfL8dhWcUojSUXnu-7" value="" style="shape=partialRectangle;html=1;whiteSpace=wrap;collapsible=0;dropTarget=0;pointerEvents=1;fillColor=none;top=0;left=0;bottom=0;right=0;points=[[0,0.5],[1,0.5]];portConstraint=eastwest;" parent="o-XNrfL8dhWcUojSUXnu-0" vertex="1">
                    <mxGeometry y="87" width="180" height="30" as="geometry"/>
                </mxCell>
                <mxCell id="o-XNrfL8dhWcUojSUXnu-8" value="" style="shape=partialRectangle;html=1;whiteSpace=wrap;connectable=0;fillColor=none;top=0;left=0;bottom=0;right=0;overflow=hidden;pointerEvents=1;" parent="o-XNrfL8dhWcUojSUXnu-7" vertex="1">
                    <mxGeometry width="40" height="30" as="geometry">
                        <mxRectangle width="40" height="30" as="alternateBounds"/>
                    </mxGeometry>
                </mxCell>
                <mxCell id="o-XNrfL8dhWcUojSUXnu-9" value="" style="shape=partialRectangle;html=1;whiteSpace=wrap;connectable=0;fillColor=none;top=0;left=0;bottom=0;right=0;align=left;spacingLeft=6;overflow=hidden;pointerEvents=1;" parent="o-XNrfL8dhWcUojSUXnu-7" vertex="1">
                    <mxGeometry x="40" width="140" height="30" as="geometry">
                        <mxRectangle width="140" height="30" as="alternateBounds"/>
                    </mxGeometry>
                </mxCell>
                <mxCell id="WZdiyTMiH6NZKimDakAd-0" value="nfj_cv_diplome" style="shape=table;startSize=33;container=1;collapsible=0;childLayout=tableLayout;fixedRows=1;rowLines=0;fontStyle=1;align=center;pointerEvents=0;fillColor=#d0cee2;strokeColor=#56517e;columnLines=1;shadow=0;comic=0;moveCells=0;treeMoving=0;labelBackgroundColor=none;labelBorderColor=none;sketch=0;rounded=1;fontColor=#000000;" parent="NZ24hD41bVVt_TexhkNw-1" vertex="1">
                    <mxGeometry x="151" y="418" width="237" height="143" as="geometry"/>
                </mxCell>
                <mxCell id="WZdiyTMiH6NZKimDakAd-1" value="" style="shape=partialRectangle;html=1;whiteSpace=wrap;collapsible=0;dropTarget=0;pointerEvents=1;fillColor=none;top=0;left=0;bottom=1;right=0;points=[[0,0.5],[1,0.5]];portConstraint=eastwest;" parent="WZdiyTMiH6NZKimDakAd-0" vertex="1">
                    <mxGeometry y="33" width="237" height="30" as="geometry"/>
                </mxCell>
                <mxCell id="WZdiyTMiH6NZKimDakAd-2" value="ID" style="shape=partialRectangle;html=1;whiteSpace=wrap;connectable=0;fillColor=none;top=0;left=0;bottom=0;right=0;overflow=hidden;pointerEvents=1;" parent="WZdiyTMiH6NZKimDakAd-1" vertex="1">
                    <mxGeometry width="52" height="30" as="geometry">
                        <mxRectangle width="52" height="30" as="alternateBounds"/>
                    </mxGeometry>
                </mxCell>
                <mxCell id="WZdiyTMiH6NZKimDakAd-3" value="id_cv_diplome ( int)" style="shape=partialRectangle;html=1;whiteSpace=wrap;connectable=0;fillColor=none;top=0;left=0;bottom=0;right=0;align=left;spacingLeft=6;overflow=hidden;pointerEvents=1;" parent="WZdiyTMiH6NZKimDakAd-1" vertex="1">
                    <mxGeometry x="52" width="185" height="30" as="geometry">
                        <mxRectangle width="185" height="30" as="alternateBounds"/>
                    </mxGeometry>
                </mxCell>
                <mxCell id="WZdiyTMiH6NZKimDakAd-4" value="" style="shape=partialRectangle;html=1;whiteSpace=wrap;collapsible=0;dropTarget=0;pointerEvents=1;fillColor=none;top=0;left=0;bottom=0;right=0;points=[[0,0.5],[1,0.5]];portConstraint=eastwest;" parent="WZdiyTMiH6NZKimDakAd-0" vertex="1">
                    <mxGeometry y="63" width="237" height="36" as="geometry"/>
                </mxCell>
                <mxCell id="WZdiyTMiH6NZKimDakAd-5" value="" style="shape=partialRectangle;html=1;whiteSpace=wrap;connectable=0;fillColor=none;top=0;left=0;bottom=0;right=0;overflow=hidden;pointerEvents=1;" parent="WZdiyTMiH6NZKimDakAd-4" vertex="1">
                    <mxGeometry width="52" height="36" as="geometry">
                        <mxRectangle width="52" height="36" as="alternateBounds"/>
                    </mxGeometry>
                </mxCell>
                <mxCell id="WZdiyTMiH6NZKimDakAd-6" value="date_debut_dcv" style="shape=partialRectangle;html=1;whiteSpace=wrap;connectable=0;fillColor=none;top=0;left=0;bottom=0;right=0;align=left;spacingLeft=6;overflow=hidden;pointerEvents=1;" parent="WZdiyTMiH6NZKimDakAd-4" vertex="1">
                    <mxGeometry x="52" width="185" height="36" as="geometry">
                        <mxRectangle width="185" height="36" as="alternateBounds"/>
                    </mxGeometry>
                </mxCell>
                <mxCell id="WZdiyTMiH6NZKimDakAd-7" value="" style="shape=partialRectangle;html=1;whiteSpace=wrap;collapsible=0;dropTarget=0;pointerEvents=1;fillColor=none;top=0;left=0;bottom=0;right=0;points=[[0,0.5],[1,0.5]];portConstraint=eastwest;" parent="WZdiyTMiH6NZKimDakAd-0" vertex="1">
                    <mxGeometry y="99" width="237" height="30" as="geometry"/>
                </mxCell>
                <mxCell id="WZdiyTMiH6NZKimDakAd-8" value="" style="shape=partialRectangle;html=1;whiteSpace=wrap;connectable=0;fillColor=none;top=0;left=0;bottom=0;right=0;overflow=hidden;pointerEvents=1;" parent="WZdiyTMiH6NZKimDakAd-7" vertex="1">
                    <mxGeometry width="52" height="30" as="geometry">
                        <mxRectangle width="52" height="30" as="alternateBounds"/>
                    </mxGeometry>
                </mxCell>
                <mxCell id="WZdiyTMiH6NZKimDakAd-9" value="date_fin_dcv&lt;br&gt;description_dcv" style="shape=partialRectangle;html=1;whiteSpace=wrap;connectable=0;fillColor=none;top=0;left=0;bottom=0;right=0;align=left;spacingLeft=6;overflow=hidden;pointerEvents=1;" parent="WZdiyTMiH6NZKimDakAd-7" vertex="1">
                    <mxGeometry x="52" width="185" height="30" as="geometry">
                        <mxRectangle width="185" height="30" as="alternateBounds"/>
                    </mxGeometry>
                </mxCell>
                <mxCell id="hLrwO9gcB31nYwEtFnjm-0" value="Diplome" style="shape=table;startSize=40;container=1;collapsible=0;childLayout=tableLayout;fixedRows=1;rowLines=0;fontStyle=1;align=center;pointerEvents=1;fillColor=#60a917;fontColor=#ffffff;strokeColor=#2D7600;" parent="NZ24hD41bVVt_TexhkNw-1" vertex="1">
                    <mxGeometry x="162" y="607.21" width="186" height="156" as="geometry"/>
                </mxCell>
                <mxCell id="hLrwO9gcB31nYwEtFnjm-1" value="" style="shape=partialRectangle;html=1;whiteSpace=wrap;collapsible=0;dropTarget=0;pointerEvents=1;fillColor=none;top=0;left=0;bottom=1;right=0;points=[[0,0.5],[1,0.5]];portConstraint=eastwest;" parent="hLrwO9gcB31nYwEtFnjm-0" vertex="1">
                    <mxGeometry y="40" width="186" height="30" as="geometry"/>
                </mxCell>
                <mxCell id="hLrwO9gcB31nYwEtFnjm-2" value="ID" style="shape=partialRectangle;html=1;whiteSpace=wrap;connectable=0;fillColor=none;top=0;left=0;bottom=0;right=0;overflow=hidden;pointerEvents=1;" parent="hLrwO9gcB31nYwEtFnjm-1" vertex="1">
                    <mxGeometry width="41" height="30" as="geometry">
                        <mxRectangle width="41" height="30" as="alternateBounds"/>
                    </mxGeometry>
                </mxCell>
                <mxCell id="hLrwO9gcB31nYwEtFnjm-3" value="id_diplome" style="shape=partialRectangle;html=1;whiteSpace=wrap;connectable=0;fillColor=none;top=0;left=0;bottom=0;right=0;align=left;spacingLeft=6;overflow=hidden;pointerEvents=1;" parent="hLrwO9gcB31nYwEtFnjm-1" vertex="1">
                    <mxGeometry x="41" width="145" height="30" as="geometry">
                        <mxRectangle width="145" height="30" as="alternateBounds"/>
                    </mxGeometry>
                </mxCell>
                <mxCell id="hLrwO9gcB31nYwEtFnjm-4" value="" style="shape=partialRectangle;html=1;whiteSpace=wrap;collapsible=0;dropTarget=0;pointerEvents=1;fillColor=none;top=0;left=0;bottom=0;right=0;points=[[0,0.5],[1,0.5]];portConstraint=eastwest;" parent="hLrwO9gcB31nYwEtFnjm-0" vertex="1">
                    <mxGeometry y="70" width="186" height="56" as="geometry"/>
                </mxCell>
                <mxCell id="hLrwO9gcB31nYwEtFnjm-5" value="" style="shape=partialRectangle;html=1;whiteSpace=wrap;connectable=0;fillColor=none;top=0;left=0;bottom=0;right=0;overflow=hidden;pointerEvents=1;" parent="hLrwO9gcB31nYwEtFnjm-4" vertex="1">
                    <mxGeometry width="41" height="56" as="geometry">
                        <mxRectangle width="41" height="56" as="alternateBounds"/>
                    </mxGeometry>
                </mxCell>
                <mxCell id="hLrwO9gcB31nYwEtFnjm-6" value="intitule_diplome&lt;br&gt;&lt;br&gt;" style="shape=partialRectangle;html=1;whiteSpace=wrap;connectable=0;fillColor=none;top=0;left=0;bottom=0;right=0;align=left;spacingLeft=6;overflow=hidden;pointerEvents=1;" parent="hLrwO9gcB31nYwEtFnjm-4" vertex="1">
                    <mxGeometry x="41" width="145" height="56" as="geometry">
                        <mxRectangle width="145" height="56" as="alternateBounds"/>
                    </mxGeometry>
                </mxCell>
                <mxCell id="hLrwO9gcB31nYwEtFnjm-7" value="" style="shape=partialRectangle;html=1;whiteSpace=wrap;collapsible=0;dropTarget=0;pointerEvents=1;fillColor=none;top=0;left=0;bottom=0;right=0;points=[[0,0.5],[1,0.5]];portConstraint=eastwest;" parent="hLrwO9gcB31nYwEtFnjm-0" vertex="1">
                    <mxGeometry y="126" width="186" height="30" as="geometry"/>
                </mxCell>
                <mxCell id="hLrwO9gcB31nYwEtFnjm-8" value="" style="shape=partialRectangle;html=1;whiteSpace=wrap;connectable=0;fillColor=none;top=0;left=0;bottom=0;right=0;overflow=hidden;pointerEvents=1;" parent="hLrwO9gcB31nYwEtFnjm-7" vertex="1">
                    <mxGeometry width="41" height="30" as="geometry">
                        <mxRectangle width="41" height="30" as="alternateBounds"/>
                    </mxGeometry>
                </mxCell>
                <mxCell id="hLrwO9gcB31nYwEtFnjm-9" value="" style="shape=partialRectangle;html=1;whiteSpace=wrap;connectable=0;fillColor=none;top=0;left=0;bottom=0;right=0;align=left;spacingLeft=6;overflow=hidden;pointerEvents=1;" parent="hLrwO9gcB31nYwEtFnjm-7" vertex="1">
                    <mxGeometry x="41" width="145" height="30" as="geometry">
                        <mxRectangle width="145" height="30" as="alternateBounds"/>
                    </mxGeometry>
                </mxCell>
                <mxCell id="21qJMVi4KPuujGRcRpR_-0" value="typeDiplome" style="shape=table;startSize=48;container=1;collapsible=0;childLayout=tableLayout;fixedRows=1;rowLines=0;fontStyle=1;align=center;pointerEvents=1;fillColor=#1ba1e2;fontColor=#ffffff;strokeColor=#006EAF;" parent="NZ24hD41bVVt_TexhkNw-1" vertex="1">
                    <mxGeometry x="-266" y="512" width="180" height="160" as="geometry"/>
                </mxCell>
                <mxCell id="21qJMVi4KPuujGRcRpR_-1" value="" style="shape=partialRectangle;html=1;whiteSpace=wrap;collapsible=0;dropTarget=0;pointerEvents=1;fillColor=none;top=0;left=0;bottom=1;right=0;points=[[0,0.5],[1,0.5]];portConstraint=eastwest;" parent="21qJMVi4KPuujGRcRpR_-0" vertex="1">
                    <mxGeometry y="48" width="180" height="30" as="geometry"/>
                </mxCell>
                <mxCell id="21qJMVi4KPuujGRcRpR_-2" value="1" style="shape=partialRectangle;html=1;whiteSpace=wrap;connectable=0;fillColor=none;top=0;left=0;bottom=0;right=0;overflow=hidden;pointerEvents=1;" parent="21qJMVi4KPuujGRcRpR_-1" vertex="1">
                    <mxGeometry width="40" height="30" as="geometry">
                        <mxRectangle width="40" height="30" as="alternateBounds"/>
                    </mxGeometry>
                </mxCell>
                <mxCell id="21qJMVi4KPuujGRcRpR_-3" value="id" style="shape=partialRectangle;html=1;whiteSpace=wrap;connectable=0;fillColor=none;top=0;left=0;bottom=0;right=0;align=left;spacingLeft=6;overflow=hidden;pointerEvents=1;" parent="21qJMVi4KPuujGRcRpR_-1" vertex="1">
                    <mxGeometry x="40" width="140" height="30" as="geometry">
                        <mxRectangle width="140" height="30" as="alternateBounds"/>
                    </mxGeometry>
                </mxCell>
                <mxCell id="21qJMVi4KPuujGRcRpR_-4" value="" style="shape=partialRectangle;html=1;whiteSpace=wrap;collapsible=0;dropTarget=0;pointerEvents=1;fillColor=none;top=0;left=0;bottom=0;right=0;points=[[0,0.5],[1,0.5]];portConstraint=eastwest;" parent="21qJMVi4KPuujGRcRpR_-0" vertex="1">
                    <mxGeometry y="78" width="180" height="30" as="geometry"/>
                </mxCell>
                <mxCell id="21qJMVi4KPuujGRcRpR_-5" value="2" style="shape=partialRectangle;html=1;whiteSpace=wrap;connectable=0;fillColor=none;top=0;left=0;bottom=0;right=0;overflow=hidden;pointerEvents=1;" parent="21qJMVi4KPuujGRcRpR_-4" vertex="1">
                    <mxGeometry width="40" height="30" as="geometry">
                        <mxRectangle width="40" height="30" as="alternateBounds"/>
                    </mxGeometry>
                </mxCell>
                <mxCell id="21qJMVi4KPuujGRcRpR_-6" value="libelle" style="shape=partialRectangle;html=1;whiteSpace=wrap;connectable=0;fillColor=none;top=0;left=0;bottom=0;right=0;align=left;spacingLeft=6;overflow=hidden;pointerEvents=1;" parent="21qJMVi4KPuujGRcRpR_-4" vertex="1">
                    <mxGeometry x="40" width="140" height="30" as="geometry">
                        <mxRectangle width="140" height="30" as="alternateBounds"/>
                    </mxGeometry>
                </mxCell>
                <mxCell id="21qJMVi4KPuujGRcRpR_-7" value="" style="shape=partialRectangle;html=1;whiteSpace=wrap;collapsible=0;dropTarget=0;pointerEvents=1;fillColor=none;top=0;left=0;bottom=0;right=0;points=[[0,0.5],[1,0.5]];portConstraint=eastwest;" parent="21qJMVi4KPuujGRcRpR_-0" vertex="1">
                    <mxGeometry y="108" width="180" height="30" as="geometry"/>
                </mxCell>
                <mxCell id="21qJMVi4KPuujGRcRpR_-8" value="" style="shape=partialRectangle;html=1;whiteSpace=wrap;connectable=0;fillColor=none;top=0;left=0;bottom=0;right=0;overflow=hidden;pointerEvents=1;" parent="21qJMVi4KPuujGRcRpR_-7" vertex="1">
                    <mxGeometry width="40" height="30" as="geometry">
                        <mxRectangle width="40" height="30" as="alternateBounds"/>
                    </mxGeometry>
                </mxCell>
                <mxCell id="21qJMVi4KPuujGRcRpR_-9" value="" style="shape=partialRectangle;html=1;whiteSpace=wrap;connectable=0;fillColor=none;top=0;left=0;bottom=0;right=0;align=left;spacingLeft=6;overflow=hidden;pointerEvents=1;" parent="21qJMVi4KPuujGRcRpR_-7" vertex="1">
                    <mxGeometry x="40" width="140" height="30" as="geometry">
                        <mxRectangle width="140" height="30" as="alternateBounds"/>
                    </mxGeometry>
                </mxCell>
                <mxCell id="fc6cnDB35qKV8UsqITET-0" value="typeSecteur" style="shape=table;startSize=48;container=1;collapsible=0;childLayout=tableLayout;fixedRows=1;rowLines=0;fontStyle=1;align=center;pointerEvents=1;fillColor=#1ba1e2;fontColor=#ffffff;strokeColor=#006EAF;" parent="NZ24hD41bVVt_TexhkNw-1" vertex="1">
                    <mxGeometry x="993" y="738" width="180" height="160" as="geometry"/>
                </mxCell>
                <mxCell id="fc6cnDB35qKV8UsqITET-1" value="" style="shape=partialRectangle;html=1;whiteSpace=wrap;collapsible=0;dropTarget=0;pointerEvents=1;fillColor=none;top=0;left=0;bottom=1;right=0;points=[[0,0.5],[1,0.5]];portConstraint=eastwest;" parent="fc6cnDB35qKV8UsqITET-0" vertex="1">
                    <mxGeometry y="48" width="180" height="30" as="geometry"/>
                </mxCell>
                <mxCell id="fc6cnDB35qKV8UsqITET-2" value="1" style="shape=partialRectangle;html=1;whiteSpace=wrap;connectable=0;fillColor=none;top=0;left=0;bottom=0;right=0;overflow=hidden;pointerEvents=1;" parent="fc6cnDB35qKV8UsqITET-1" vertex="1">
                    <mxGeometry width="40" height="30" as="geometry">
                        <mxRectangle width="40" height="30" as="alternateBounds"/>
                    </mxGeometry>
                </mxCell>
                <mxCell id="fc6cnDB35qKV8UsqITET-3" value="id" style="shape=partialRectangle;html=1;whiteSpace=wrap;connectable=0;fillColor=none;top=0;left=0;bottom=0;right=0;align=left;spacingLeft=6;overflow=hidden;pointerEvents=1;" parent="fc6cnDB35qKV8UsqITET-1" vertex="1">
                    <mxGeometry x="40" width="140" height="30" as="geometry">
                        <mxRectangle width="140" height="30" as="alternateBounds"/>
                    </mxGeometry>
                </mxCell>
                <mxCell id="fc6cnDB35qKV8UsqITET-4" value="" style="shape=partialRectangle;html=1;whiteSpace=wrap;collapsible=0;dropTarget=0;pointerEvents=1;fillColor=none;top=0;left=0;bottom=0;right=0;points=[[0,0.5],[1,0.5]];portConstraint=eastwest;" parent="fc6cnDB35qKV8UsqITET-0" vertex="1">
                    <mxGeometry y="78" width="180" height="30" as="geometry"/>
                </mxCell>
                <mxCell id="fc6cnDB35qKV8UsqITET-5" value="2" style="shape=partialRectangle;html=1;whiteSpace=wrap;connectable=0;fillColor=none;top=0;left=0;bottom=0;right=0;overflow=hidden;pointerEvents=1;" parent="fc6cnDB35qKV8UsqITET-4" vertex="1">
                    <mxGeometry width="40" height="30" as="geometry">
                        <mxRectangle width="40" height="30" as="alternateBounds"/>
                    </mxGeometry>
                </mxCell>
                <mxCell id="fc6cnDB35qKV8UsqITET-6" value="libelle" style="shape=partialRectangle;html=1;whiteSpace=wrap;connectable=0;fillColor=none;top=0;left=0;bottom=0;right=0;align=left;spacingLeft=6;overflow=hidden;pointerEvents=1;" parent="fc6cnDB35qKV8UsqITET-4" vertex="1">
                    <mxGeometry x="40" width="140" height="30" as="geometry">
                        <mxRectangle width="140" height="30" as="alternateBounds"/>
                    </mxGeometry>
                </mxCell>
                <mxCell id="fc6cnDB35qKV8UsqITET-7" value="" style="shape=partialRectangle;html=1;whiteSpace=wrap;collapsible=0;dropTarget=0;pointerEvents=1;fillColor=none;top=0;left=0;bottom=0;right=0;points=[[0,0.5],[1,0.5]];portConstraint=eastwest;" parent="fc6cnDB35qKV8UsqITET-0" vertex="1">
                    <mxGeometry y="108" width="180" height="30" as="geometry"/>
                </mxCell>
                <mxCell id="fc6cnDB35qKV8UsqITET-8" value="" style="shape=partialRectangle;html=1;whiteSpace=wrap;connectable=0;fillColor=none;top=0;left=0;bottom=0;right=0;overflow=hidden;pointerEvents=1;" parent="fc6cnDB35qKV8UsqITET-7" vertex="1">
                    <mxGeometry width="40" height="30" as="geometry">
                        <mxRectangle width="40" height="30" as="alternateBounds"/>
                    </mxGeometry>
                </mxCell>
                <mxCell id="fc6cnDB35qKV8UsqITET-9" value="" style="shape=partialRectangle;html=1;whiteSpace=wrap;connectable=0;fillColor=none;top=0;left=0;bottom=0;right=0;align=left;spacingLeft=6;overflow=hidden;pointerEvents=1;" parent="fc6cnDB35qKV8UsqITET-7" vertex="1">
                    <mxGeometry x="40" width="140" height="30" as="geometry">
                        <mxRectangle width="140" height="30" as="alternateBounds"/>
                    </mxGeometry>
                </mxCell>
                <mxCell id="DSki1fmm3qZUmmkTbVoN-0" value="nfj_metier" style="shape=table;startSize=31;container=1;collapsible=0;childLayout=tableLayout;fixedRows=1;rowLines=0;fontStyle=1;align=center;pointerEvents=1;fillColor=#e3c800;fontColor=#000000;strokeColor=#B09500;" parent="NZ24hD41bVVt_TexhkNw-1" vertex="1">
                    <mxGeometry x="905" y="37" width="180" height="150" as="geometry"/>
                </mxCell>
                <mxCell id="DSki1fmm3qZUmmkTbVoN-1" value="" style="shape=partialRectangle;html=1;whiteSpace=wrap;collapsible=0;dropTarget=0;pointerEvents=1;fillColor=none;top=0;left=0;bottom=1;right=0;points=[[0,0.5],[1,0.5]];portConstraint=eastwest;" parent="DSki1fmm3qZUmmkTbVoN-0" vertex="1">
                    <mxGeometry y="31" width="180" height="30" as="geometry"/>
                </mxCell>
                <mxCell id="DSki1fmm3qZUmmkTbVoN-2" value="ID" style="shape=partialRectangle;html=1;whiteSpace=wrap;connectable=0;fillColor=none;top=0;left=0;bottom=0;right=0;overflow=hidden;pointerEvents=1;" parent="DSki1fmm3qZUmmkTbVoN-1" vertex="1">
                    <mxGeometry width="40" height="30" as="geometry">
                        <mxRectangle width="40" height="30" as="alternateBounds"/>
                    </mxGeometry>
                </mxCell>
                <mxCell id="DSki1fmm3qZUmmkTbVoN-3" value="&lt;span style=&quot;font-family: monospace ; font-size: 13.12px&quot;&gt;&lt;font color=&quot;#ffffff&quot;&gt;id_metier&lt;/font&gt;&lt;/span&gt;" style="shape=partialRectangle;html=1;whiteSpace=wrap;connectable=0;fillColor=none;top=0;left=0;bottom=0;right=0;align=left;spacingLeft=6;overflow=hidden;pointerEvents=1;" parent="DSki1fmm3qZUmmkTbVoN-1" vertex="1">
                    <mxGeometry x="40" width="140" height="30" as="geometry">
                        <mxRectangle width="140" height="30" as="alternateBounds"/>
                    </mxGeometry>
                </mxCell>
                <mxCell id="DSki1fmm3qZUmmkTbVoN-4" value="" style="shape=partialRectangle;html=1;whiteSpace=wrap;collapsible=0;dropTarget=0;pointerEvents=1;fillColor=none;top=0;left=0;bottom=0;right=0;points=[[0,0.5],[1,0.5]];portConstraint=eastwest;" parent="DSki1fmm3qZUmmkTbVoN-0" vertex="1">
                    <mxGeometry y="61" width="180" height="30" as="geometry"/>
                </mxCell>
                <mxCell id="DSki1fmm3qZUmmkTbVoN-5" value="" style="shape=partialRectangle;html=1;whiteSpace=wrap;connectable=0;fillColor=none;top=0;left=0;bottom=0;right=0;overflow=hidden;pointerEvents=1;" parent="DSki1fmm3qZUmmkTbVoN-4" vertex="1">
                    <mxGeometry width="40" height="30" as="geometry">
                        <mxRectangle width="40" height="30" as="alternateBounds"/>
                    </mxGeometry>
                </mxCell>
                <mxCell id="DSki1fmm3qZUmmkTbVoN-6" value="&lt;span style=&quot;font-family: monospace ; font-size: 13.12px&quot;&gt;&lt;font color=&quot;#ffffff&quot;&gt;libelle_metier&lt;/font&gt;&lt;/span&gt;" style="shape=partialRectangle;html=1;whiteSpace=wrap;connectable=0;fillColor=none;top=0;left=0;bottom=0;right=0;align=left;spacingLeft=6;overflow=hidden;pointerEvents=1;" parent="DSki1fmm3qZUmmkTbVoN-4" vertex="1">
                    <mxGeometry x="40" width="140" height="30" as="geometry">
                        <mxRectangle width="140" height="30" as="alternateBounds"/>
                    </mxGeometry>
                </mxCell>
                <mxCell id="DSki1fmm3qZUmmkTbVoN-7" value="" style="shape=partialRectangle;html=1;whiteSpace=wrap;collapsible=0;dropTarget=0;pointerEvents=1;fillColor=none;top=0;left=0;bottom=0;right=0;points=[[0,0.5],[1,0.5]];portConstraint=eastwest;" parent="DSki1fmm3qZUmmkTbVoN-0" vertex="1">
                    <mxGeometry y="91" width="180" height="30" as="geometry"/>
                </mxCell>
                <mxCell id="DSki1fmm3qZUmmkTbVoN-8" value="" style="shape=partialRectangle;html=1;whiteSpace=wrap;connectable=0;fillColor=none;top=0;left=0;bottom=0;right=0;overflow=hidden;pointerEvents=1;" parent="DSki1fmm3qZUmmkTbVoN-7" vertex="1">
                    <mxGeometry width="40" height="30" as="geometry">
                        <mxRectangle width="40" height="30" as="alternateBounds"/>
                    </mxGeometry>
                </mxCell>
                <mxCell id="DSki1fmm3qZUmmkTbVoN-9" value="" style="shape=partialRectangle;html=1;whiteSpace=wrap;connectable=0;fillColor=none;top=0;left=0;bottom=0;right=0;align=left;spacingLeft=6;overflow=hidden;pointerEvents=1;" parent="DSki1fmm3qZUmmkTbVoN-7" vertex="1">
                    <mxGeometry x="40" width="140" height="30" as="geometry">
                        <mxRectangle width="140" height="30" as="alternateBounds"/>
                    </mxGeometry>
                </mxCell>
                <mxCell id="-BV69GhfwW0_i8k1_7dU-0" value="post" style="shape=table;startSize=25;container=1;collapsible=0;childLayout=tableLayout;fixedRows=1;rowLines=0;fontStyle=1;align=center;pointerEvents=1;fillColor=#60a917;fontColor=#ffffff;strokeColor=#2D7600;" parent="NZ24hD41bVVt_TexhkNw-1" vertex="1">
                    <mxGeometry x="1302" y="155" width="162" height="154" as="geometry"/>
                </mxCell>
                <mxCell id="-BV69GhfwW0_i8k1_7dU-1" value="" style="shape=partialRectangle;html=1;whiteSpace=wrap;collapsible=0;dropTarget=0;pointerEvents=1;fillColor=none;top=0;left=0;bottom=1;right=0;points=[[0,0.5],[1,0.5]];portConstraint=eastwest;" parent="-BV69GhfwW0_i8k1_7dU-0" vertex="1">
                    <mxGeometry y="25" width="162" height="30" as="geometry"/>
                </mxCell>
                <mxCell id="-BV69GhfwW0_i8k1_7dU-2" value="1" style="shape=partialRectangle;html=1;whiteSpace=wrap;connectable=0;fillColor=none;top=0;left=0;bottom=0;right=0;overflow=hidden;pointerEvents=1;" parent="-BV69GhfwW0_i8k1_7dU-1" vertex="1">
                    <mxGeometry width="36" height="30" as="geometry">
                        <mxRectangle width="36" height="30" as="alternateBounds"/>
                    </mxGeometry>
                </mxCell>
                <mxCell id="-BV69GhfwW0_i8k1_7dU-3" value="Value 1" style="shape=partialRectangle;html=1;whiteSpace=wrap;connectable=0;fillColor=none;top=0;left=0;bottom=0;right=0;align=left;spacingLeft=6;overflow=hidden;pointerEvents=1;" parent="-BV69GhfwW0_i8k1_7dU-1" vertex="1">
                    <mxGeometry x="36" width="126" height="30" as="geometry">
                        <mxRectangle width="126" height="30" as="alternateBounds"/>
                    </mxGeometry>
                </mxCell>
                <mxCell id="-BV69GhfwW0_i8k1_7dU-4" value="" style="shape=partialRectangle;html=1;whiteSpace=wrap;collapsible=0;dropTarget=0;pointerEvents=1;fillColor=none;top=0;left=0;bottom=0;right=0;points=[[0,0.5],[1,0.5]];portConstraint=eastwest;" parent="-BV69GhfwW0_i8k1_7dU-0" vertex="1">
                    <mxGeometry y="55" width="162" height="60" as="geometry"/>
                </mxCell>
                <mxCell id="-BV69GhfwW0_i8k1_7dU-5" value="2" style="shape=partialRectangle;html=1;whiteSpace=wrap;connectable=0;fillColor=none;top=0;left=0;bottom=0;right=0;overflow=hidden;pointerEvents=1;" parent="-BV69GhfwW0_i8k1_7dU-4" vertex="1">
                    <mxGeometry width="36" height="60" as="geometry">
                        <mxRectangle width="36" height="60" as="alternateBounds"/>
                    </mxGeometry>
                </mxCell>
                <mxCell id="-BV69GhfwW0_i8k1_7dU-6" value="libelle&lt;br&gt;description&lt;br&gt;idetablisement" style="shape=partialRectangle;html=1;whiteSpace=wrap;connectable=0;fillColor=none;top=0;left=0;bottom=0;right=0;align=left;spacingLeft=6;overflow=hidden;pointerEvents=1;" parent="-BV69GhfwW0_i8k1_7dU-4" vertex="1">
                    <mxGeometry x="36" width="126" height="60" as="geometry">
                        <mxRectangle width="126" height="60" as="alternateBounds"/>
                    </mxGeometry>
                </mxCell>
                <mxCell id="-BV69GhfwW0_i8k1_7dU-7" value="" style="shape=partialRectangle;html=1;whiteSpace=wrap;collapsible=0;dropTarget=0;pointerEvents=1;fillColor=none;top=0;left=0;bottom=0;right=0;points=[[0,0.5],[1,0.5]];portConstraint=eastwest;" parent="-BV69GhfwW0_i8k1_7dU-0" vertex="1">
                    <mxGeometry y="115" width="162" height="30" as="geometry"/>
                </mxCell>
                <mxCell id="-BV69GhfwW0_i8k1_7dU-8" value="3" style="shape=partialRectangle;html=1;whiteSpace=wrap;connectable=0;fillColor=none;top=0;left=0;bottom=0;right=0;overflow=hidden;pointerEvents=1;" parent="-BV69GhfwW0_i8k1_7dU-7" vertex="1">
                    <mxGeometry width="36" height="30" as="geometry">
                        <mxRectangle width="36" height="30" as="alternateBounds"/>
                    </mxGeometry>
                </mxCell>
                <mxCell id="-BV69GhfwW0_i8k1_7dU-9" value="durre" style="shape=partialRectangle;html=1;whiteSpace=wrap;connectable=0;fillColor=none;top=0;left=0;bottom=0;right=0;align=left;spacingLeft=6;overflow=hidden;pointerEvents=1;" parent="-BV69GhfwW0_i8k1_7dU-7" vertex="1">
                    <mxGeometry x="36" width="126" height="30" as="geometry">
                        <mxRectangle width="126" height="30" as="alternateBounds"/>
                    </mxGeometry>
                </mxCell>
                <mxCell id="KT-TbLXuqcUKg8DwN-lT-0" value="" style="endArrow=none;html=1;rounded=0;align=center;verticalAlign=top;endFill=0;labelBackgroundColor=none;endSize=6;startArrow=none;startFill=1;entryX=1.009;entryY=0.32;entryDx=0;entryDy=0;exitX=-0.009;exitY=0.24;exitDx=0;exitDy=0;exitPerimeter=0;entryPerimeter=0;" edge="1" parent="NZ24hD41bVVt_TexhkNw-1" source="3mcL5QzOfvOTShrA23er-27" target="aAhb1mRORmWq3ktMoKdN-24">
                    <mxGeometry relative="1" as="geometry">
                        <mxPoint x="297" y="205" as="sourcePoint"/>
                        <mxPoint x="106" y="330" as="targetPoint"/>
                    </mxGeometry>
                </mxCell>
                <mxCell id="KT-TbLXuqcUKg8DwN-lT-1" value="" style="endArrow=none;html=1;rounded=0;align=center;verticalAlign=top;endFill=0;labelBackgroundColor=none;endSize=6;startArrow=none;startFill=1;exitX=-0.004;exitY=0.041;exitDx=0;exitDy=0;exitPerimeter=0;" edge="1" parent="NZ24hD41bVVt_TexhkNw-1" source="3mcL5QzOfvOTShrA23er-15" target="aAhb1mRORmWq3ktMoKdN-17">
                    <mxGeometry relative="1" as="geometry">
                        <mxPoint x="385.885" y="150.03999999999996" as="sourcePoint"/>
                        <mxPoint x="173.99800000000005" y="121" as="targetPoint"/>
                    </mxGeometry>
                </mxCell>
                <mxCell id="KT-TbLXuqcUKg8DwN-lT-2" value="" style="endArrow=none;html=1;rounded=0;align=center;verticalAlign=top;endFill=0;labelBackgroundColor=none;endSize=6;startArrow=none;startFill=1;exitX=0.25;exitY=0;exitDx=0;exitDy=0;" edge="1" parent="NZ24hD41bVVt_TexhkNw-1" source="3mcL5QzOfvOTShrA23er-11" target="ZRAN-U3p6ZM3RGhGnWkc-7">
                    <mxGeometry relative="1" as="geometry">
                        <mxPoint x="395.885" y="160.03999999999996" as="sourcePoint"/>
                        <mxPoint x="183.99800000000005" y="131" as="targetPoint"/>
                    </mxGeometry>
                </mxCell>
                <mxCell id="KT-TbLXuqcUKg8DwN-lT-3" value="" style="endArrow=none;html=1;rounded=0;align=center;verticalAlign=top;endFill=0;labelBackgroundColor=none;endSize=6;startArrow=none;startFill=1;entryX=0.263;entryY=0.967;entryDx=0;entryDy=0;entryPerimeter=0;" edge="1" parent="NZ24hD41bVVt_TexhkNw-1" source="3mcL5QzOfvOTShrA23er-21" target="PbSK438inqVWAlEwqOTO-7">
                    <mxGeometry relative="1" as="geometry">
                        <mxPoint x="405.885" y="170.03999999999996" as="sourcePoint"/>
                        <mxPoint x="193.99800000000005" y="141" as="targetPoint"/>
                    </mxGeometry>
                </mxCell>
                <mxCell id="KT-TbLXuqcUKg8DwN-lT-4" value="" style="endArrow=none;html=1;rounded=0;align=center;verticalAlign=top;endFill=0;labelBackgroundColor=none;endSize=6;startArrow=none;startFill=1;entryX=0.354;entryY=1.017;entryDx=0;entryDy=0;entryPerimeter=0;" edge="1" parent="NZ24hD41bVVt_TexhkNw-1" source="3mcL5QzOfvOTShrA23er-19" target="_KFFmQumqW6ChTbCH17B-7">
                    <mxGeometry relative="1" as="geometry">
                        <mxPoint x="658" y="-217" as="sourcePoint"/>
                        <mxPoint x="203.99800000000005" y="151" as="targetPoint"/>
                    </mxGeometry>
                </mxCell>
                <mxCell id="KT-TbLXuqcUKg8DwN-lT-5" value="" style="endArrow=none;html=1;rounded=0;align=center;verticalAlign=top;endFill=0;labelBackgroundColor=none;endSize=6;startArrow=none;startFill=1;" edge="1" parent="NZ24hD41bVVt_TexhkNw-1" source="3mcL5QzOfvOTShrA23er-13" target="1zkMCLK5u_mCet8t2XoT-7">
                    <mxGeometry relative="1" as="geometry">
                        <mxPoint x="425.885" y="190.03999999999996" as="sourcePoint"/>
                        <mxPoint x="213.99800000000005" y="161" as="targetPoint"/>
                    </mxGeometry>
                </mxCell>
                <mxCell id="KT-TbLXuqcUKg8DwN-lT-6" value="" style="endArrow=none;html=1;rounded=0;align=center;verticalAlign=top;endFill=0;labelBackgroundColor=none;endSize=6;startArrow=none;startFill=1;exitX=0;exitY=0.5;exitDx=0;exitDy=0;" edge="1" parent="NZ24hD41bVVt_TexhkNw-1" source="3mcL5QzOfvOTShrA23er-17" target="btA47OXqU7HjPLdY4TJe-7">
                    <mxGeometry relative="1" as="geometry">
                        <mxPoint x="435.885" y="200.03999999999996" as="sourcePoint"/>
                        <mxPoint x="223.99800000000005" y="171" as="targetPoint"/>
                    </mxGeometry>
                </mxCell>
                <mxCell id="KT-TbLXuqcUKg8DwN-lT-7" value="" style="endArrow=none;html=1;rounded=0;align=center;verticalAlign=top;endFill=0;labelBackgroundColor=none;endSize=6;startArrow=none;startFill=1;entryX=1;entryY=0.5;entryDx=0;entryDy=0;exitX=0;exitY=0.5;exitDx=0;exitDy=0;" edge="1" parent="NZ24hD41bVVt_TexhkNw-1" source="3mcL5QzOfvOTShrA23er-29" target="aAhb1mRORmWq3ktMoKdN-4">
                    <mxGeometry relative="1" as="geometry">
                        <mxPoint x="445.885" y="210.03999999999996" as="sourcePoint"/>
                        <mxPoint x="233.99800000000005" y="181" as="targetPoint"/>
                    </mxGeometry>
                </mxCell>
                <mxCell id="KT-TbLXuqcUKg8DwN-lT-8" value="" style="endArrow=none;html=1;rounded=0;align=center;verticalAlign=top;endFill=0;labelBackgroundColor=none;endSize=6;startArrow=none;startFill=1;exitX=-0.017;exitY=0.699;exitDx=0;exitDy=0;exitPerimeter=0;" edge="1" parent="NZ24hD41bVVt_TexhkNw-1" source="3mcL5QzOfvOTShrA23er-33" target="zik9dK_EfALcT01HA7fP-0">
                    <mxGeometry relative="1" as="geometry">
                        <mxPoint x="455.885" y="220.03999999999996" as="sourcePoint"/>
                        <mxPoint x="243.99800000000005" y="191" as="targetPoint"/>
                    </mxGeometry>
                </mxCell>
                <mxCell id="KT-TbLXuqcUKg8DwN-lT-9" value="" style="endArrow=none;html=1;rounded=0;align=center;verticalAlign=top;endFill=0;labelBackgroundColor=none;endSize=6;startArrow=none;startFill=1;entryX=1;entryY=0.5;entryDx=0;entryDy=0;exitX=0;exitY=1;exitDx=0;exitDy=0;" edge="1" parent="NZ24hD41bVVt_TexhkNw-1" source="3mcL5QzOfvOTShrA23er-35" target="zik9dK_EfALcT01HA7fP-1">
                    <mxGeometry relative="1" as="geometry">
                        <mxPoint x="465.885" y="230.03999999999996" as="sourcePoint"/>
                        <mxPoint x="253.99800000000005" y="201" as="targetPoint"/>
                    </mxGeometry>
                </mxCell>
                <mxCell id="KT-TbLXuqcUKg8DwN-lT-10" value="" style="endArrow=none;html=1;rounded=0;align=center;verticalAlign=top;endFill=0;labelBackgroundColor=none;endSize=6;startArrow=none;startFill=1;entryX=1;entryY=0.5;entryDx=0;entryDy=0;exitX=0;exitY=0.5;exitDx=0;exitDy=0;" edge="1" parent="NZ24hD41bVVt_TexhkNw-1" source="3mcL5QzOfvOTShrA23er-31" target="dFBFQeIwfvR6jytxC3AC-1">
                    <mxGeometry relative="1" as="geometry">
                        <mxPoint x="475.885" y="240.03999999999996" as="sourcePoint"/>
                        <mxPoint x="263.99800000000005" y="211" as="targetPoint"/>
                    </mxGeometry>
                </mxCell>
                <mxCell id="KT-TbLXuqcUKg8DwN-lT-11" value="" style="endArrow=none;html=1;rounded=0;align=center;verticalAlign=top;endFill=0;labelBackgroundColor=none;endSize=6;startArrow=none;startFill=1;entryX=1;entryY=0.5;entryDx=0;entryDy=0;exitX=0;exitY=0.5;exitDx=0;exitDy=0;" edge="1" parent="NZ24hD41bVVt_TexhkNw-1" source="3mcL5QzOfvOTShrA23er-37" target="dFBFQeIwfvR6jytxC3AC-11">
                    <mxGeometry relative="1" as="geometry">
                        <mxPoint x="485.885" y="250.03999999999996" as="sourcePoint"/>
                        <mxPoint x="273.99800000000005" y="221" as="targetPoint"/>
                    </mxGeometry>
                </mxCell>
                <mxCell id="KT-TbLXuqcUKg8DwN-lT-12" value="" style="endArrow=none;html=1;rounded=0;align=center;verticalAlign=top;endFill=0;labelBackgroundColor=none;endSize=6;startArrow=none;startFill=1;exitX=0.25;exitY=1;exitDx=0;exitDy=0;" edge="1" parent="NZ24hD41bVVt_TexhkNw-1" source="3mcL5QzOfvOTShrA23er-43" target="WZdiyTMiH6NZKimDakAd-0">
                    <mxGeometry relative="1" as="geometry">
                        <mxPoint x="495.885" y="260.03999999999996" as="sourcePoint"/>
                        <mxPoint x="283.99800000000005" y="231" as="targetPoint"/>
                    </mxGeometry>
                </mxCell>
                <mxCell id="KT-TbLXuqcUKg8DwN-lT-13" value="" style="endArrow=none;html=1;rounded=0;align=center;verticalAlign=top;endFill=0;labelBackgroundColor=none;endSize=6;startArrow=none;startFill=1;entryX=0.5;entryY=1;entryDx=0;entryDy=0;" edge="1" parent="NZ24hD41bVVt_TexhkNw-1" source="3mcL5QzOfvOTShrA23er-45" target="WZdiyTMiH6NZKimDakAd-0">
                    <mxGeometry relative="1" as="geometry">
                        <mxPoint x="505.885" y="270.03999999999996" as="sourcePoint"/>
                        <mxPoint x="293.99800000000005" y="241" as="targetPoint"/>
                    </mxGeometry>
                </mxCell>
                <mxCell id="KT-TbLXuqcUKg8DwN-lT-15" value="&lt;font style=&quot;font-size: 17px&quot;&gt;est de type&lt;/font&gt;" style="ellipse;whiteSpace=wrap;html=1;fillColor=none;gradientColor=none;" vertex="1" parent="NZ24hD41bVVt_TexhkNw-1">
                    <mxGeometry x="4" y="617" width="139" height="46" as="geometry"/>
                </mxCell>
                <mxCell id="KT-TbLXuqcUKg8DwN-lT-16" value="&lt;font style=&quot;font-size: 17px&quot;&gt;est de type&lt;/font&gt;" style="ellipse;whiteSpace=wrap;html=1;fillColor=none;gradientColor=none;" vertex="1" parent="NZ24hD41bVVt_TexhkNw-1">
                    <mxGeometry x="563" y="789" width="139" height="46" as="geometry"/>
                </mxCell>
                <mxCell id="KT-TbLXuqcUKg8DwN-lT-17" value="" style="endArrow=none;html=1;rounded=0;align=center;verticalAlign=top;endFill=0;labelBackgroundColor=none;endSize=6;startArrow=none;startFill=1;entryX=0.5;entryY=1;entryDx=0;entryDy=0;exitX=0.5;exitY=0;exitDx=0;exitDy=0;" edge="1" parent="NZ24hD41bVVt_TexhkNw-1" source="3mcL5QzOfvOTShrA23er-41" target="KT-TbLXuqcUKg8DwN-lT-15">
                    <mxGeometry relative="1" as="geometry">
                        <mxPoint x="297.6923076923076" y="716" as="sourcePoint"/>
                        <mxPoint x="279" y="635" as="targetPoint"/>
                    </mxGeometry>
                </mxCell>
                <mxCell id="KT-TbLXuqcUKg8DwN-lT-18" value="" style="endArrow=none;html=1;rounded=0;align=center;verticalAlign=top;endFill=0;labelBackgroundColor=none;endSize=6;startArrow=none;startFill=1;entryX=1;entryY=0.5;entryDx=0;entryDy=0;exitX=0;exitY=1;exitDx=0;exitDy=0;" edge="1" parent="NZ24hD41bVVt_TexhkNw-1" source="3mcL5QzOfvOTShrA23er-39" target="21qJMVi4KPuujGRcRpR_-7">
                    <mxGeometry relative="1" as="geometry">
                        <mxPoint x="225" y="801" as="sourcePoint"/>
                        <mxPoint x="120.99999999999477" y="820" as="targetPoint"/>
                    </mxGeometry>
                </mxCell>
                <mxCell id="KT-TbLXuqcUKg8DwN-lT-19" value="" style="endArrow=none;html=1;rounded=0;align=center;verticalAlign=top;endFill=0;labelBackgroundColor=none;endSize=6;startArrow=none;startFill=1;entryX=0;entryY=0.5;entryDx=0;entryDy=0;exitX=0.5;exitY=1;exitDx=0;exitDy=0;" edge="1" parent="NZ24hD41bVVt_TexhkNw-1" source="3mcL5QzOfvOTShrA23er-47" target="KT-TbLXuqcUKg8DwN-lT-16">
                    <mxGeometry relative="1" as="geometry">
                        <mxPoint x="235" y="811" as="sourcePoint"/>
                        <mxPoint x="130.99999999999477" y="830" as="targetPoint"/>
                    </mxGeometry>
                </mxCell>
                <mxCell id="KT-TbLXuqcUKg8DwN-lT-20" value="" style="endArrow=none;html=1;rounded=0;align=center;verticalAlign=top;endFill=0;labelBackgroundColor=none;endSize=6;startArrow=none;startFill=1;entryX=0.5;entryY=1;entryDx=0;entryDy=0;" edge="1" parent="NZ24hD41bVVt_TexhkNw-1" source="Le9eaMWr8VOy0vCNwcUT-6" target="KT-TbLXuqcUKg8DwN-lT-16">
                    <mxGeometry relative="1" as="geometry">
                        <mxPoint x="315" y="891.794117647059" as="sourcePoint"/>
                        <mxPoint x="476.9999999999991" y="923" as="targetPoint"/>
                    </mxGeometry>
                </mxCell>
                <mxCell id="M_qP7EMYeCVYK5ylgwqu-0" value="&lt;font style=&quot;font-size: 17px&quot;&gt;est de type&lt;/font&gt;" style="ellipse;whiteSpace=wrap;html=1;fillColor=none;gradientColor=none;" vertex="1" parent="NZ24hD41bVVt_TexhkNw-1">
                    <mxGeometry x="477" y="367" width="139" height="46" as="geometry"/>
                </mxCell>
                <mxCell id="M_qP7EMYeCVYK5ylgwqu-1" value="" style="endArrow=none;html=1;rounded=0;align=center;verticalAlign=top;endFill=0;labelBackgroundColor=none;endSize=6;startArrow=none;startFill=1;entryX=1;entryY=0.5;entryDx=0;entryDy=0;exitX=0;exitY=0.5;exitDx=0;exitDy=0;" edge="1" parent="NZ24hD41bVVt_TexhkNw-1" source="3mcL5QzOfvOTShrA23er-49" target="WZdiyTMiH6NZKimDakAd-7">
                    <mxGeometry relative="1" as="geometry">
                        <mxPoint x="296.2649542882018" y="716" as="sourcePoint"/>
                        <mxPoint x="279" y="634.9999999999995" as="targetPoint"/>
                    </mxGeometry>
                </mxCell>
                <mxCell id="M_qP7EMYeCVYK5ylgwqu-2" value="" style="endArrow=none;html=1;rounded=0;align=center;verticalAlign=top;endFill=0;labelBackgroundColor=none;endSize=6;startArrow=none;startFill=1;entryX=0;entryY=0.5;entryDx=0;entryDy=0;exitX=0.623;exitY=1.121;exitDx=0;exitDy=0;exitPerimeter=0;" edge="1" parent="NZ24hD41bVVt_TexhkNw-1" source="3mcL5QzOfvOTShrA23er-51" target="o-XNrfL8dhWcUojSUXnu-7">
                    <mxGeometry relative="1" as="geometry">
                        <mxPoint x="480.9999999999991" y="476" as="sourcePoint"/>
                        <mxPoint x="397" y="542" as="targetPoint"/>
                    </mxGeometry>
                </mxCell>
                <mxCell id="4_BrmVAwMWvuRDTefq3J-0" value="" style="endArrow=none;html=1;rounded=0;align=center;verticalAlign=top;endFill=0;labelBackgroundColor=none;endSize=6;startArrow=none;startFill=1;exitX=1;exitY=1;exitDx=0;exitDy=0;" edge="1" parent="NZ24hD41bVVt_TexhkNw-1" source="3mcL5QzOfvOTShrA23er-53" target="_IAP6_hS8GQyXqVgw28z-0">
                    <mxGeometry relative="1" as="geometry">
                        <mxPoint x="567.5969999999998" y="504.5659999999998" as="sourcePoint"/>
                        <mxPoint x="652" y="635" as="targetPoint"/>
                    </mxGeometry>
                </mxCell>
                <mxCell id="4_BrmVAwMWvuRDTefq3J-1" value="" style="endArrow=none;html=1;rounded=0;align=center;verticalAlign=top;endFill=0;labelBackgroundColor=none;endSize=6;startArrow=none;startFill=1;exitX=0;exitY=0;exitDx=0;exitDy=0;" edge="1" parent="NZ24hD41bVVt_TexhkNw-1" source="3mcL5QzOfvOTShrA23er-55" target="_IAP6_hS8GQyXqVgw28z-4">
                    <mxGeometry relative="1" as="geometry">
                        <mxPoint x="577.5969999999998" y="514.5659999999998" as="sourcePoint"/>
                        <mxPoint x="662" y="645" as="targetPoint"/>
                    </mxGeometry>
                </mxCell>
                <mxCell id="OYtwcB21SmvSHsJzqfex-0" value="&lt;font style=&quot;font-size: 17px&quot;&gt;est situé&lt;/font&gt;" style="ellipse;whiteSpace=wrap;html=1;fillColor=none;gradientColor=none;" vertex="1" parent="NZ24hD41bVVt_TexhkNw-1">
                    <mxGeometry x="877" y="469" width="139" height="46" as="geometry"/>
                </mxCell>
                <mxCell id="OYtwcB21SmvSHsJzqfex-1" value="" style="endArrow=none;html=1;rounded=0;align=center;verticalAlign=top;endFill=0;labelBackgroundColor=none;endSize=6;startArrow=none;startFill=1;entryX=1;entryY=0.5;entryDx=0;entryDy=0;exitX=0;exitY=0.5;exitDx=0;exitDy=0;" edge="1" parent="NZ24hD41bVVt_TexhkNw-1" source="OYtwcB21SmvSHsJzqfex-0" target="o-XNrfL8dhWcUojSUXnu-7">
                    <mxGeometry relative="1" as="geometry">
                        <mxPoint x="567.5969999999998" y="504.5659999999998" as="sourcePoint"/>
                        <mxPoint x="652" y="635" as="targetPoint"/>
                    </mxGeometry>
                </mxCell>
                <mxCell id="OYtwcB21SmvSHsJzqfex-2" value="" style="endArrow=none;html=1;rounded=0;align=center;verticalAlign=top;endFill=0;labelBackgroundColor=none;endSize=6;startArrow=none;startFill=1;entryX=0;entryY=1.224;entryDx=0;entryDy=0;exitX=0.744;exitY=1.078;exitDx=0;exitDy=0;exitPerimeter=0;entryPerimeter=0;" edge="1" parent="NZ24hD41bVVt_TexhkNw-1" source="3mcL5QzOfvOTShrA23er-57" target="pqFCJquyYfx5Mul4W1ZP-7">
                    <mxGeometry relative="1" as="geometry">
                        <mxPoint x="577.5969999999998" y="514.5659999999998" as="sourcePoint"/>
                        <mxPoint x="662" y="645" as="targetPoint"/>
                    </mxGeometry>
                </mxCell>
                <mxCell id="W-0MPcJ2i0DKQ3aUKoie-0" value="typeEtablisement" style="shape=table;startSize=48;container=1;collapsible=0;childLayout=tableLayout;fixedRows=1;rowLines=0;fontStyle=1;align=center;pointerEvents=1;fillColor=#1ba1e2;fontColor=#ffffff;strokeColor=#006EAF;" vertex="1" parent="NZ24hD41bVVt_TexhkNw-1">
                    <mxGeometry x="664" y="563" width="180" height="160" as="geometry"/>
                </mxCell>
                <mxCell id="W-0MPcJ2i0DKQ3aUKoie-1" value="" style="shape=partialRectangle;html=1;whiteSpace=wrap;collapsible=0;dropTarget=0;pointerEvents=1;fillColor=none;top=0;left=0;bottom=1;right=0;points=[[0,0.5],[1,0.5]];portConstraint=eastwest;" vertex="1" parent="W-0MPcJ2i0DKQ3aUKoie-0">
                    <mxGeometry y="48" width="180" height="30" as="geometry"/>
                </mxCell>
                <mxCell id="W-0MPcJ2i0DKQ3aUKoie-2" value="1" style="shape=partialRectangle;html=1;whiteSpace=wrap;connectable=0;fillColor=none;top=0;left=0;bottom=0;right=0;overflow=hidden;pointerEvents=1;" vertex="1" parent="W-0MPcJ2i0DKQ3aUKoie-1">
                    <mxGeometry width="40" height="30" as="geometry">
                        <mxRectangle width="40" height="30" as="alternateBounds"/>
                    </mxGeometry>
                </mxCell>
                <mxCell id="W-0MPcJ2i0DKQ3aUKoie-3" value="id" style="shape=partialRectangle;html=1;whiteSpace=wrap;connectable=0;fillColor=none;top=0;left=0;bottom=0;right=0;align=left;spacingLeft=6;overflow=hidden;pointerEvents=1;" vertex="1" parent="W-0MPcJ2i0DKQ3aUKoie-1">
                    <mxGeometry x="40" width="140" height="30" as="geometry">
                        <mxRectangle width="140" height="30" as="alternateBounds"/>
                    </mxGeometry>
                </mxCell>
                <mxCell id="W-0MPcJ2i0DKQ3aUKoie-4" value="" style="shape=partialRectangle;html=1;whiteSpace=wrap;collapsible=0;dropTarget=0;pointerEvents=1;fillColor=none;top=0;left=0;bottom=0;right=0;points=[[0,0.5],[1,0.5]];portConstraint=eastwest;" vertex="1" parent="W-0MPcJ2i0DKQ3aUKoie-0">
                    <mxGeometry y="78" width="180" height="30" as="geometry"/>
                </mxCell>
                <mxCell id="W-0MPcJ2i0DKQ3aUKoie-5" value="2" style="shape=partialRectangle;html=1;whiteSpace=wrap;connectable=0;fillColor=none;top=0;left=0;bottom=0;right=0;overflow=hidden;pointerEvents=1;" vertex="1" parent="W-0MPcJ2i0DKQ3aUKoie-4">
                    <mxGeometry width="40" height="30" as="geometry">
                        <mxRectangle width="40" height="30" as="alternateBounds"/>
                    </mxGeometry>
                </mxCell>
                <mxCell id="W-0MPcJ2i0DKQ3aUKoie-6" value="libelle" style="shape=partialRectangle;html=1;whiteSpace=wrap;connectable=0;fillColor=none;top=0;left=0;bottom=0;right=0;align=left;spacingLeft=6;overflow=hidden;pointerEvents=1;" vertex="1" parent="W-0MPcJ2i0DKQ3aUKoie-4">
                    <mxGeometry x="40" width="140" height="30" as="geometry">
                        <mxRectangle width="140" height="30" as="alternateBounds"/>
                    </mxGeometry>
                </mxCell>
                <mxCell id="W-0MPcJ2i0DKQ3aUKoie-7" value="" style="shape=partialRectangle;html=1;whiteSpace=wrap;collapsible=0;dropTarget=0;pointerEvents=1;fillColor=none;top=0;left=0;bottom=0;right=0;points=[[0,0.5],[1,0.5]];portConstraint=eastwest;" vertex="1" parent="W-0MPcJ2i0DKQ3aUKoie-0">
                    <mxGeometry y="108" width="180" height="30" as="geometry"/>
                </mxCell>
                <mxCell id="W-0MPcJ2i0DKQ3aUKoie-8" value="" style="shape=partialRectangle;html=1;whiteSpace=wrap;connectable=0;fillColor=none;top=0;left=0;bottom=0;right=0;overflow=hidden;pointerEvents=1;" vertex="1" parent="W-0MPcJ2i0DKQ3aUKoie-7">
                    <mxGeometry width="40" height="30" as="geometry">
                        <mxRectangle width="40" height="30" as="alternateBounds"/>
                    </mxGeometry>
                </mxCell>
                <mxCell id="W-0MPcJ2i0DKQ3aUKoie-9" value="" style="shape=partialRectangle;html=1;whiteSpace=wrap;connectable=0;fillColor=none;top=0;left=0;bottom=0;right=0;align=left;spacingLeft=6;overflow=hidden;pointerEvents=1;" vertex="1" parent="W-0MPcJ2i0DKQ3aUKoie-7">
                    <mxGeometry x="40" width="140" height="30" as="geometry">
                        <mxRectangle width="140" height="30" as="alternateBounds"/>
                    </mxGeometry>
                </mxCell>
                <mxCell id="W-0MPcJ2i0DKQ3aUKoie-10" value="" style="endArrow=none;html=1;rounded=0;align=center;verticalAlign=top;endFill=0;labelBackgroundColor=none;endSize=6;startArrow=none;startFill=1;entryX=1;entryY=0.5;entryDx=0;entryDy=0;exitX=0;exitY=0.5;exitDx=0;exitDy=0;" edge="1" parent="NZ24hD41bVVt_TexhkNw-1" source="Le9eaMWr8VOy0vCNwcUT-0" target="W-0MPcJ2i0DKQ3aUKoie-4">
                    <mxGeometry relative="1" as="geometry">
                        <mxPoint x="1239" y="799" as="sourcePoint"/>
                        <mxPoint x="934.8846153846157" y="410" as="targetPoint"/>
                    </mxGeometry>
                </mxCell>
                <mxCell id="W-0MPcJ2i0DKQ3aUKoie-11" value="&lt;font style=&quot;font-size: 17px&quot;&gt;est de type&lt;/font&gt;" style="ellipse;whiteSpace=wrap;html=1;fillColor=none;gradientColor=none;" vertex="1" parent="NZ24hD41bVVt_TexhkNw-1">
                    <mxGeometry x="1233" y="641" width="139" height="46" as="geometry"/>
                </mxCell>
                <mxCell id="W-0MPcJ2i0DKQ3aUKoie-12" value="" style="endArrow=none;html=1;rounded=0;align=center;verticalAlign=top;endFill=0;labelBackgroundColor=none;endSize=6;startArrow=none;startFill=1;entryX=0;entryY=0;entryDx=0;entryDy=0;exitX=0.5;exitY=1;exitDx=0;exitDy=0;" edge="1" parent="NZ24hD41bVVt_TexhkNw-1" source="Le9eaMWr8VOy0vCNwcUT-2" target="W-0MPcJ2i0DKQ3aUKoie-11">
                    <mxGeometry relative="1" as="geometry">
                        <mxPoint x="1115" y="667" as="sourcePoint"/>
                        <mxPoint x="1450" y="889" as="targetPoint"/>
                    </mxGeometry>
                </mxCell>
                <mxCell id="nrvHIdxCho8Uk1vL8Cxf-0" value="&lt;font style=&quot;font-size: 17px&quot;&gt;Recherche&lt;/font&gt;" style="ellipse;whiteSpace=wrap;html=1;fillColor=none;gradientColor=none;" vertex="1" parent="NZ24hD41bVVt_TexhkNw-1">
                    <mxGeometry x="708" y="101" width="118" height="51" as="geometry"/>
                </mxCell>
                <mxCell id="nrvHIdxCho8Uk1vL8Cxf-1" value="" style="endArrow=none;html=1;rounded=0;align=center;verticalAlign=top;endFill=0;labelBackgroundColor=none;endSize=6;startArrow=none;startFill=1;exitX=1;exitY=0.5;exitDx=0;exitDy=0;entryX=0;entryY=0.5;entryDx=0;entryDy=0;" edge="1" parent="NZ24hD41bVVt_TexhkNw-1" source="5tVQvCFI44JdURqjJstN-12" target="nrvHIdxCho8Uk1vL8Cxf-0">
                    <mxGeometry relative="1" as="geometry">
                        <mxPoint x="629" y="277.84000000000015" as="sourcePoint"/>
                        <mxPoint x="828" y="330.0977761777285" as="targetPoint"/>
                    </mxGeometry>
                </mxCell>
                <mxCell id="nrvHIdxCho8Uk1vL8Cxf-2" value="" style="endArrow=none;html=1;rounded=0;align=center;verticalAlign=top;endFill=0;labelBackgroundColor=none;endSize=6;startArrow=none;startFill=1;exitX=1;exitY=0.5;exitDx=0;exitDy=0;entryX=0;entryY=0.5;entryDx=0;entryDy=0;" edge="1" parent="NZ24hD41bVVt_TexhkNw-1" source="5tVQvCFI44JdURqjJstN-4" target="DSki1fmm3qZUmmkTbVoN-4">
                    <mxGeometry relative="1" as="geometry">
                        <mxPoint x="639" y="287.84000000000015" as="sourcePoint"/>
                        <mxPoint x="838" y="340.0977761777285" as="targetPoint"/>
                    </mxGeometry>
                </mxCell>
                <mxCell id="g9FRePbC9gzXtTIRcfvs-0" value="&lt;font style=&quot;font-size: 17px&quot;&gt;réaliser&lt;/font&gt;" style="ellipse;whiteSpace=wrap;html=1;fillColor=none;gradientColor=none;" vertex="1" parent="NZ24hD41bVVt_TexhkNw-1">
                    <mxGeometry x="1166" y="190" width="111" height="48" as="geometry"/>
                </mxCell>
                <mxCell id="g9FRePbC9gzXtTIRcfvs-1" value="" style="endArrow=none;html=1;rounded=0;align=center;verticalAlign=top;endFill=0;labelBackgroundColor=none;endSize=6;startArrow=none;startFill=1;exitX=0;exitY=0;exitDx=0;exitDy=0;entryX=1;entryY=0.5;entryDx=0;entryDy=0;" edge="1" parent="NZ24hD41bVVt_TexhkNw-1" source="5tVQvCFI44JdURqjJstN-2" target="DSki1fmm3qZUmmkTbVoN-7">
                    <mxGeometry relative="1" as="geometry">
                        <mxPoint x="842.000000000005" y="46.49999999999977" as="sourcePoint"/>
                        <mxPoint x="1165" y="48" as="targetPoint"/>
                    </mxGeometry>
                </mxCell>
                <mxCell id="g9FRePbC9gzXtTIRcfvs-2" value="" style="endArrow=none;html=1;rounded=0;align=center;verticalAlign=top;endFill=0;labelBackgroundColor=none;endSize=6;startArrow=none;startFill=1;exitX=0.5;exitY=1;exitDx=0;exitDy=0;entryX=0;entryY=0.5;entryDx=0;entryDy=0;" edge="1" parent="NZ24hD41bVVt_TexhkNw-1" source="5tVQvCFI44JdURqjJstN-6" target="-BV69GhfwW0_i8k1_7dU-7">
                    <mxGeometry relative="1" as="geometry">
                        <mxPoint x="1060.8821983760295" y="167.19244779589167" as="sourcePoint"/>
                        <mxPoint x="997" y="82.00000000000023" as="targetPoint"/>
                    </mxGeometry>
                </mxCell>
                <mxCell id="su678eltHq6haXWcRdad-0" value="typeContrat" style="shape=table;startSize=48;container=1;collapsible=0;childLayout=tableLayout;fixedRows=1;rowLines=0;fontStyle=1;align=center;pointerEvents=1;fillColor=#1ba1e2;fontColor=#ffffff;strokeColor=#006EAF;" vertex="1" parent="NZ24hD41bVVt_TexhkNw-1">
                    <mxGeometry x="1298" y="-219" width="180" height="160" as="geometry"/>
                </mxCell>
                <mxCell id="su678eltHq6haXWcRdad-1" value="" style="shape=partialRectangle;html=1;whiteSpace=wrap;collapsible=0;dropTarget=0;pointerEvents=1;fillColor=none;top=0;left=0;bottom=1;right=0;points=[[0,0.5],[1,0.5]];portConstraint=eastwest;" vertex="1" parent="su678eltHq6haXWcRdad-0">
                    <mxGeometry y="48" width="180" height="30" as="geometry"/>
                </mxCell>
                <mxCell id="su678eltHq6haXWcRdad-2" value="1" style="shape=partialRectangle;html=1;whiteSpace=wrap;connectable=0;fillColor=none;top=0;left=0;bottom=0;right=0;overflow=hidden;pointerEvents=1;" vertex="1" parent="su678eltHq6haXWcRdad-1">
                    <mxGeometry width="40" height="30" as="geometry">
                        <mxRectangle width="40" height="30" as="alternateBounds"/>
                    </mxGeometry>
                </mxCell>
                <mxCell id="su678eltHq6haXWcRdad-3" value="id" style="shape=partialRectangle;html=1;whiteSpace=wrap;connectable=0;fillColor=none;top=0;left=0;bottom=0;right=0;align=left;spacingLeft=6;overflow=hidden;pointerEvents=1;" vertex="1" parent="su678eltHq6haXWcRdad-1">
                    <mxGeometry x="40" width="140" height="30" as="geometry">
                        <mxRectangle width="140" height="30" as="alternateBounds"/>
                    </mxGeometry>
                </mxCell>
                <mxCell id="su678eltHq6haXWcRdad-4" value="" style="shape=partialRectangle;html=1;whiteSpace=wrap;collapsible=0;dropTarget=0;pointerEvents=1;fillColor=none;top=0;left=0;bottom=0;right=0;points=[[0,0.5],[1,0.5]];portConstraint=eastwest;" vertex="1" parent="su678eltHq6haXWcRdad-0">
                    <mxGeometry y="78" width="180" height="30" as="geometry"/>
                </mxCell>
                <mxCell id="su678eltHq6haXWcRdad-5" value="2" style="shape=partialRectangle;html=1;whiteSpace=wrap;connectable=0;fillColor=none;top=0;left=0;bottom=0;right=0;overflow=hidden;pointerEvents=1;" vertex="1" parent="su678eltHq6haXWcRdad-4">
                    <mxGeometry width="40" height="30" as="geometry">
                        <mxRectangle width="40" height="30" as="alternateBounds"/>
                    </mxGeometry>
                </mxCell>
                <mxCell id="su678eltHq6haXWcRdad-6" value="libelle" style="shape=partialRectangle;html=1;whiteSpace=wrap;connectable=0;fillColor=none;top=0;left=0;bottom=0;right=0;align=left;spacingLeft=6;overflow=hidden;pointerEvents=1;" vertex="1" parent="su678eltHq6haXWcRdad-4">
                    <mxGeometry x="40" width="140" height="30" as="geometry">
                        <mxRectangle width="140" height="30" as="alternateBounds"/>
                    </mxGeometry>
                </mxCell>
                <mxCell id="su678eltHq6haXWcRdad-7" value="" style="shape=partialRectangle;html=1;whiteSpace=wrap;collapsible=0;dropTarget=0;pointerEvents=1;fillColor=none;top=0;left=0;bottom=0;right=0;points=[[0,0.5],[1,0.5]];portConstraint=eastwest;" vertex="1" parent="su678eltHq6haXWcRdad-0">
                    <mxGeometry y="108" width="180" height="30" as="geometry"/>
                </mxCell>
                <mxCell id="su678eltHq6haXWcRdad-8" value="" style="shape=partialRectangle;html=1;whiteSpace=wrap;connectable=0;fillColor=none;top=0;left=0;bottom=0;right=0;overflow=hidden;pointerEvents=1;" vertex="1" parent="su678eltHq6haXWcRdad-7">
                    <mxGeometry width="40" height="30" as="geometry">
                        <mxRectangle width="40" height="30" as="alternateBounds"/>
                    </mxGeometry>
                </mxCell>
                <mxCell id="su678eltHq6haXWcRdad-9" value="" style="shape=partialRectangle;html=1;whiteSpace=wrap;connectable=0;fillColor=none;top=0;left=0;bottom=0;right=0;align=left;spacingLeft=6;overflow=hidden;pointerEvents=1;" vertex="1" parent="su678eltHq6haXWcRdad-7">
                    <mxGeometry x="40" width="140" height="30" as="geometry">
                        <mxRectangle width="140" height="30" as="alternateBounds"/>
                    </mxGeometry>
                </mxCell>
                <mxCell id="PlJtt6_AQf1lFd8Zpl1X-0" value="contract recherché" style="shape=table;startSize=44;container=1;collapsible=0;childLayout=tableLayout;fixedRows=1;rowLines=0;fontStyle=1;align=center;pointerEvents=1;fillColor=#d0cee2;strokeColor=#56517e;fontColor=#000000;rounded=1;" vertex="1" parent="NZ24hD41bVVt_TexhkNw-1">
                    <mxGeometry x="877" y="-187.5" width="216" height="148" as="geometry"/>
                </mxCell>
                <mxCell id="PlJtt6_AQf1lFd8Zpl1X-1" value="" style="shape=partialRectangle;html=1;whiteSpace=wrap;collapsible=0;dropTarget=0;pointerEvents=1;fillColor=none;top=0;left=0;bottom=1;right=0;points=[[0,0.5],[1,0.5]];portConstraint=eastwest;" vertex="1" parent="PlJtt6_AQf1lFd8Zpl1X-0">
                    <mxGeometry y="44" width="216" height="30" as="geometry"/>
                </mxCell>
                <mxCell id="PlJtt6_AQf1lFd8Zpl1X-2" value="ID" style="shape=partialRectangle;html=1;whiteSpace=wrap;connectable=0;fillColor=none;top=0;left=0;bottom=0;right=0;overflow=hidden;pointerEvents=1;" vertex="1" parent="PlJtt6_AQf1lFd8Zpl1X-1">
                    <mxGeometry width="47" height="30" as="geometry">
                        <mxRectangle width="47" height="30" as="alternateBounds"/>
                    </mxGeometry>
                </mxCell>
                <mxCell id="PlJtt6_AQf1lFd8Zpl1X-3" value="&lt;span style=&quot;font-family: monospace ; font-size: 13.12px&quot;&gt;&lt;font color=&quot;#ffffff&quot;&gt;id_contratrecherche&lt;/font&gt;&lt;/span&gt;" style="shape=partialRectangle;html=1;whiteSpace=wrap;connectable=0;fillColor=none;top=0;left=0;bottom=0;right=0;align=left;spacingLeft=6;overflow=hidden;pointerEvents=1;" vertex="1" parent="PlJtt6_AQf1lFd8Zpl1X-1">
                    <mxGeometry x="47" width="169" height="30" as="geometry">
                        <mxRectangle width="169" height="30" as="alternateBounds"/>
                    </mxGeometry>
                </mxCell>
                <mxCell id="PlJtt6_AQf1lFd8Zpl1X-4" value="" style="shape=partialRectangle;html=1;whiteSpace=wrap;collapsible=0;dropTarget=0;pointerEvents=1;fillColor=none;top=0;left=0;bottom=0;right=0;points=[[0,0.5],[1,0.5]];portConstraint=eastwest;" vertex="1" parent="PlJtt6_AQf1lFd8Zpl1X-0">
                    <mxGeometry y="74" width="216" height="30" as="geometry"/>
                </mxCell>
                <mxCell id="PlJtt6_AQf1lFd8Zpl1X-5" value="" style="shape=partialRectangle;html=1;whiteSpace=wrap;connectable=0;fillColor=none;top=0;left=0;bottom=0;right=0;overflow=hidden;pointerEvents=1;" vertex="1" parent="PlJtt6_AQf1lFd8Zpl1X-4">
                    <mxGeometry width="47" height="30" as="geometry">
                        <mxRectangle width="47" height="30" as="alternateBounds"/>
                    </mxGeometry>
                </mxCell>
                <mxCell id="PlJtt6_AQf1lFd8Zpl1X-6" value="" style="shape=partialRectangle;html=1;whiteSpace=wrap;connectable=0;fillColor=none;top=0;left=0;bottom=0;right=0;align=left;spacingLeft=6;overflow=hidden;pointerEvents=1;" vertex="1" parent="PlJtt6_AQf1lFd8Zpl1X-4">
                    <mxGeometry x="47" width="169" height="30" as="geometry">
                        <mxRectangle width="169" height="30" as="alternateBounds"/>
                    </mxGeometry>
                </mxCell>
                <mxCell id="PlJtt6_AQf1lFd8Zpl1X-7" value="" style="shape=partialRectangle;html=1;whiteSpace=wrap;collapsible=0;dropTarget=0;pointerEvents=1;fillColor=none;top=0;left=0;bottom=0;right=0;points=[[0,0.5],[1,0.5]];portConstraint=eastwest;" vertex="1" parent="PlJtt6_AQf1lFd8Zpl1X-0">
                    <mxGeometry y="104" width="216" height="30" as="geometry"/>
                </mxCell>
                <mxCell id="PlJtt6_AQf1lFd8Zpl1X-8" value="" style="shape=partialRectangle;html=1;whiteSpace=wrap;connectable=0;fillColor=none;top=0;left=0;bottom=0;right=0;overflow=hidden;pointerEvents=1;" vertex="1" parent="PlJtt6_AQf1lFd8Zpl1X-7">
                    <mxGeometry width="47" height="30" as="geometry">
                        <mxRectangle width="47" height="30" as="alternateBounds"/>
                    </mxGeometry>
                </mxCell>
                <mxCell id="PlJtt6_AQf1lFd8Zpl1X-9" value="" style="shape=partialRectangle;html=1;whiteSpace=wrap;connectable=0;fillColor=none;top=0;left=0;bottom=0;right=0;align=left;spacingLeft=6;overflow=hidden;pointerEvents=1;" vertex="1" parent="PlJtt6_AQf1lFd8Zpl1X-7">
                    <mxGeometry x="47" width="169" height="30" as="geometry">
                        <mxRectangle width="169" height="30" as="alternateBounds"/>
                    </mxGeometry>
                </mxCell>
                <mxCell id="PlJtt6_AQf1lFd8Zpl1X-12" value="" style="endArrow=none;html=1;rounded=0;align=center;verticalAlign=top;endFill=0;labelBackgroundColor=none;endSize=6;startArrow=none;startFill=1;exitX=1;exitY=0.5;exitDx=0;exitDy=0;entryX=0;entryY=0.5;entryDx=0;entryDy=0;" edge="1" parent="NZ24hD41bVVt_TexhkNw-1" source="3mcL5QzOfvOTShrA23er-23" target="PlJtt6_AQf1lFd8Zpl1X-7">
                    <mxGeometry relative="1" as="geometry">
                        <mxPoint x="629" y="184.49999999999977" as="sourcePoint"/>
                        <mxPoint x="717.999999999995" y="136.49999999999977" as="targetPoint"/>
                    </mxGeometry>
                </mxCell>
                <mxCell id="PlJtt6_AQf1lFd8Zpl1X-13" value="" style="endArrow=none;html=1;rounded=0;align=center;verticalAlign=top;endFill=0;labelBackgroundColor=none;endSize=6;startArrow=none;startFill=1;exitX=1;exitY=0.5;exitDx=0;exitDy=0;entryX=0;entryY=0.5;entryDx=0;entryDy=0;" edge="1" parent="NZ24hD41bVVt_TexhkNw-1" source="3mcL5QzOfvOTShrA23er-25" target="su678eltHq6haXWcRdad-7">
                    <mxGeometry relative="1" as="geometry">
                        <mxPoint x="629" y="108.99999999999977" as="sourcePoint"/>
                        <mxPoint x="887" y="-58.49999999999977" as="targetPoint"/>
                    </mxGeometry>
                </mxCell>
                <mxCell id="GjIhu6G1a1tVIv9Z8uJo-0" value="&lt;font style=&quot;font-size: 17px&quot;&gt;est de type&lt;/font&gt;" style="ellipse;whiteSpace=wrap;html=1;fillColor=none;gradientColor=none;" vertex="1" parent="NZ24hD41bVVt_TexhkNw-1">
                    <mxGeometry x="1335" y="20" width="139" height="46" as="geometry"/>
                </mxCell>
                <mxCell id="GjIhu6G1a1tVIv9Z8uJo-1" value="" style="endArrow=none;html=1;rounded=0;align=center;verticalAlign=top;endFill=0;labelBackgroundColor=none;endSize=6;startArrow=none;startFill=1;exitX=0.5;exitY=0;exitDx=0;exitDy=0;" edge="1" parent="NZ24hD41bVVt_TexhkNw-1" source="5tVQvCFI44JdURqjJstN-9">
                    <mxGeometry relative="1" as="geometry">
                        <mxPoint x="1103" y="-58.5" as="sourcePoint"/>
                        <mxPoint x="1379" y="-57" as="targetPoint"/>
                    </mxGeometry>
                </mxCell>
                <mxCell id="GjIhu6G1a1tVIv9Z8uJo-2" value="" style="endArrow=none;html=1;rounded=0;align=center;verticalAlign=top;endFill=0;labelBackgroundColor=none;endSize=6;startArrow=none;startFill=1;exitX=0.5;exitY=0;exitDx=0;exitDy=0;entryX=0.5;entryY=1;entryDx=0;entryDy=0;" edge="1" parent="NZ24hD41bVVt_TexhkNw-1" source="5tVQvCFI44JdURqjJstN-8" target="GjIhu6G1a1tVIv9Z8uJo-0">
                    <mxGeometry relative="1" as="geometry">
                        <mxPoint x="1113" y="-48.5" as="sourcePoint"/>
                        <mxPoint x="1318" y="-76" as="targetPoint"/>
                    </mxGeometry>
                </mxCell>
                <mxCell id="3mcL5QzOfvOTShrA23er-0" value="&lt;font style=&quot;font-size: 17px&quot;&gt;est de type&lt;/font&gt;" style="ellipse;whiteSpace=wrap;html=1;fillColor=none;gradientColor=none;" vertex="1" parent="NZ24hD41bVVt_TexhkNw-1">
                    <mxGeometry x="1420" y="451" width="139" height="46" as="geometry"/>
                </mxCell>
                <mxCell id="3mcL5QzOfvOTShrA23er-1" value="" style="endArrow=none;html=1;rounded=0;align=center;verticalAlign=top;endFill=0;labelBackgroundColor=none;endSize=6;startArrow=none;startFill=1;exitX=0.75;exitY=1;exitDx=0;exitDy=0;entryX=0.5;entryY=0;entryDx=0;entryDy=0;" edge="1" parent="NZ24hD41bVVt_TexhkNw-1" source="Le9eaMWr8VOy0vCNwcUT-14" target="3mcL5QzOfvOTShrA23er-0">
                    <mxGeometry relative="1" as="geometry">
                        <mxPoint x="1341.9999999999995" y="176.00000000000023" as="sourcePoint"/>
                        <mxPoint x="1414.5" y="75.99999999999977" as="targetPoint"/>
                    </mxGeometry>
                </mxCell>
                <mxCell id="3mcL5QzOfvOTShrA23er-2" value="" style="endArrow=none;html=1;rounded=0;align=center;verticalAlign=top;endFill=0;labelBackgroundColor=none;endSize=6;startArrow=none;startFill=1;entryX=0.5;entryY=1;entryDx=0;entryDy=0;exitX=1;exitY=0.5;exitDx=0;exitDy=0;" edge="1" parent="NZ24hD41bVVt_TexhkNw-1" source="Le9eaMWr8VOy0vCNwcUT-8" target="3mcL5QzOfvOTShrA23er-0">
                    <mxGeometry relative="1" as="geometry">
                        <mxPoint x="1276" y="926" as="sourcePoint"/>
                        <mxPoint x="1499.5" y="461" as="targetPoint"/>
                        <Array as="points">
                            <mxPoint x="1432" y="746"/>
                        </Array>
                    </mxGeometry>
                </mxCell>
                <mxCell id="3mcL5QzOfvOTShrA23er-3" value="&lt;font style=&quot;font-size: 17px&quot;&gt;est situé&lt;/font&gt;" style="ellipse;whiteSpace=wrap;html=1;fillColor=none;gradientColor=none;" vertex="1" parent="NZ24hD41bVVt_TexhkNw-1">
                    <mxGeometry x="1116" y="341" width="139" height="46" as="geometry"/>
                </mxCell>
                <mxCell id="3mcL5QzOfvOTShrA23er-5" value="" style="endArrow=none;html=1;rounded=0;align=center;verticalAlign=top;endFill=0;labelBackgroundColor=none;endSize=6;startArrow=none;startFill=1;entryX=0.5;entryY=1;entryDx=0;entryDy=0;" edge="1" parent="NZ24hD41bVVt_TexhkNw-1" source="5tVQvCFI44JdURqjJstN-0" target="3mcL5QzOfvOTShrA23er-3">
                    <mxGeometry relative="1" as="geometry">
                        <mxPoint x="1160.5" y="215.99999999999977" as="sourcePoint"/>
                        <mxPoint x="1260.9999999999995" y="306.0000000000002" as="targetPoint"/>
                    </mxGeometry>
                </mxCell>
                <mxCell id="3mcL5QzOfvOTShrA23er-6" value="" style="endArrow=none;html=1;rounded=0;align=center;verticalAlign=top;endFill=0;labelBackgroundColor=none;endSize=6;startArrow=none;startFill=1;exitX=1;exitY=0.5;exitDx=0;exitDy=0;entryX=0.25;entryY=1;entryDx=0;entryDy=0;" edge="1" parent="NZ24hD41bVVt_TexhkNw-1" source="MOAtFmsJQ_MiPiYk_iym-0" target="-BV69GhfwW0_i8k1_7dU-0">
                    <mxGeometry relative="1" as="geometry">
                        <mxPoint x="1170.5" y="225.99999999999977" as="sourcePoint"/>
                        <mxPoint x="1270.9999999999995" y="316.0000000000002" as="targetPoint"/>
                    </mxGeometry>
                </mxCell>
                <mxCell id="3mcL5QzOfvOTShrA23er-11" value="0, N" style="text;html=1;strokeColor=none;fillColor=none;align=center;verticalAlign=middle;whiteSpace=wrap;rounded=0;labelBackgroundColor=none;labelBorderColor=none;fontColor=#FFFFFF;" vertex="1" parent="NZ24hD41bVVt_TexhkNw-1">
                    <mxGeometry x="401" y="-19" width="60" height="30" as="geometry"/>
                </mxCell>
                <mxCell id="3mcL5QzOfvOTShrA23er-12" value="" style="endArrow=none;html=1;rounded=0;align=center;verticalAlign=top;endFill=0;labelBackgroundColor=none;endSize=6;startArrow=none;startFill=1;exitX=0.25;exitY=0;exitDx=0;exitDy=0;" edge="1" parent="NZ24hD41bVVt_TexhkNw-1" source="ayO-XwdDbGL5or1vbrsi-0" target="3mcL5QzOfvOTShrA23er-11">
                    <mxGeometry relative="1" as="geometry">
                        <mxPoint x="442.75" y="57" as="sourcePoint"/>
                        <mxPoint x="424.3080357142858" y="-96" as="targetPoint"/>
                    </mxGeometry>
                </mxCell>
                <mxCell id="3mcL5QzOfvOTShrA23er-13" value="0, N" style="text;html=1;strokeColor=none;fillColor=none;align=center;verticalAlign=middle;whiteSpace=wrap;rounded=0;labelBackgroundColor=none;labelBorderColor=none;fontColor=#FFFFFF;" vertex="1" parent="NZ24hD41bVVt_TexhkNw-1">
                    <mxGeometry x="312" y="-288" width="60" height="30" as="geometry"/>
                </mxCell>
                <mxCell id="3mcL5QzOfvOTShrA23er-14" value="" style="endArrow=none;html=1;rounded=0;align=center;verticalAlign=top;endFill=0;labelBackgroundColor=none;endSize=6;startArrow=none;startFill=1;" edge="1" parent="NZ24hD41bVVt_TexhkNw-1" source="ZRAN-U3p6ZM3RGhGnWkc-0" target="3mcL5QzOfvOTShrA23er-13">
                    <mxGeometry relative="1" as="geometry">
                        <mxPoint x="372.8910256410254" y="-238.00000000000023" as="sourcePoint"/>
                        <mxPoint x="323.98076923076906" y="-308.0000000000002" as="targetPoint"/>
                    </mxGeometry>
                </mxCell>
                <mxCell id="3mcL5QzOfvOTShrA23er-15" value="0, N" style="text;html=1;strokeColor=none;fillColor=none;align=center;verticalAlign=middle;whiteSpace=wrap;rounded=0;labelBackgroundColor=none;labelBorderColor=none;fontColor=#FFFFFF;" vertex="1" parent="NZ24hD41bVVt_TexhkNw-1">
                    <mxGeometry x="271" y="36" width="60" height="30" as="geometry"/>
                </mxCell>
                <mxCell id="3mcL5QzOfvOTShrA23er-16" value="" style="endArrow=none;html=1;rounded=0;align=center;verticalAlign=top;endFill=0;labelBackgroundColor=none;endSize=6;startArrow=none;startFill=1;exitX=-0.004;exitY=0.041;exitDx=0;exitDy=0;exitPerimeter=0;" edge="1" parent="NZ24hD41bVVt_TexhkNw-1" source="ayO-XwdDbGL5or1vbrsi-4" target="3mcL5QzOfvOTShrA23er-15">
                    <mxGeometry relative="1" as="geometry">
                        <mxPoint x="383.05999999999995" y="118.96099999999979" as="sourcePoint"/>
                        <mxPoint x="257.3508819731114" as="targetPoint"/>
                    </mxGeometry>
                </mxCell>
                <mxCell id="3mcL5QzOfvOTShrA23er-17" value="0, N" style="text;html=1;strokeColor=none;fillColor=none;align=center;verticalAlign=middle;whiteSpace=wrap;rounded=0;labelBackgroundColor=none;labelBorderColor=none;fontColor=#FFFFFF;" vertex="1" parent="NZ24hD41bVVt_TexhkNw-1">
                    <mxGeometry x="83" y="-140" width="60" height="30" as="geometry"/>
                </mxCell>
                <mxCell id="3mcL5QzOfvOTShrA23er-18" value="" style="endArrow=none;html=1;rounded=0;align=center;verticalAlign=top;endFill=0;labelBackgroundColor=none;endSize=6;startArrow=none;startFill=1;exitX=0;exitY=0.5;exitDx=0;exitDy=0;" edge="1" parent="NZ24hD41bVVt_TexhkNw-1" source="aAhb1mRORmWq3ktMoKdN-11" target="3mcL5QzOfvOTShrA23er-17">
                    <mxGeometry relative="1" as="geometry">
                        <mxPoint x="171" y="-76.5" as="sourcePoint"/>
                        <mxPoint x="45.16299559471372" y="-174.99999999999977" as="targetPoint"/>
                    </mxGeometry>
                </mxCell>
                <mxCell id="3mcL5QzOfvOTShrA23er-19" value="0, N" style="text;html=1;strokeColor=none;fillColor=none;align=center;verticalAlign=middle;whiteSpace=wrap;rounded=0;labelBackgroundColor=none;labelBorderColor=none;fontColor=#FFFFFF;" vertex="1" parent="NZ24hD41bVVt_TexhkNw-1">
                    <mxGeometry x="648" y="-245" width="60" height="30" as="geometry"/>
                </mxCell>
                <mxCell id="3mcL5QzOfvOTShrA23er-20" value="" style="endArrow=none;html=1;rounded=0;align=center;verticalAlign=top;endFill=0;labelBackgroundColor=none;endSize=6;startArrow=none;startFill=1;entryX=0.354;entryY=1.017;entryDx=0;entryDy=0;entryPerimeter=0;" edge="1" parent="NZ24hD41bVVt_TexhkNw-1" source="PbSK438inqVWAlEwqOTO-0" target="3mcL5QzOfvOTShrA23er-19">
                    <mxGeometry relative="1" as="geometry">
                        <mxPoint x="677.6673061198817" y="-174.99999999999977" as="sourcePoint"/>
                        <mxPoint x="674.0660000000003" y="-271.4899999999998" as="targetPoint"/>
                    </mxGeometry>
                </mxCell>
                <mxCell id="3mcL5QzOfvOTShrA23er-21" value="0, N" style="text;html=1;strokeColor=none;fillColor=none;align=center;verticalAlign=middle;whiteSpace=wrap;rounded=0;labelBackgroundColor=none;labelBorderColor=none;fontColor=#FFFFFF;" vertex="1" parent="NZ24hD41bVVt_TexhkNw-1">
                    <mxGeometry x="578" y="-24" width="60" height="30" as="geometry"/>
                </mxCell>
                <mxCell id="3mcL5QzOfvOTShrA23er-22" value="" style="endArrow=none;html=1;rounded=0;align=center;verticalAlign=top;endFill=0;labelBackgroundColor=none;endSize=6;startArrow=none;startFill=1;entryX=0.263;entryY=0.967;entryDx=0;entryDy=0;entryPerimeter=0;" edge="1" parent="NZ24hD41bVVt_TexhkNw-1" source="ayO-XwdDbGL5or1vbrsi-0" target="3mcL5QzOfvOTShrA23er-21">
                    <mxGeometry relative="1" as="geometry">
                        <mxPoint x="562.9825682020523" y="57" as="sourcePoint"/>
                        <mxPoint x="625.9639999999999" y="-50.98999999999978" as="targetPoint"/>
                    </mxGeometry>
                </mxCell>
                <mxCell id="3mcL5QzOfvOTShrA23er-23" value="0, N" style="text;html=1;strokeColor=none;fillColor=none;align=center;verticalAlign=middle;whiteSpace=wrap;rounded=0;labelBackgroundColor=none;labelBorderColor=none;fontColor=#FFFFFF;" vertex="1" parent="NZ24hD41bVVt_TexhkNw-1">
                    <mxGeometry x="708" y="-2" width="60" height="30" as="geometry"/>
                </mxCell>
                <mxCell id="3mcL5QzOfvOTShrA23er-24" value="" style="endArrow=none;html=1;rounded=0;align=center;verticalAlign=top;endFill=0;labelBackgroundColor=none;endSize=6;startArrow=none;startFill=1;exitX=1;exitY=0.5;exitDx=0;exitDy=0;entryX=0;entryY=0.5;entryDx=0;entryDy=0;" edge="1" parent="NZ24hD41bVVt_TexhkNw-1" source="ayO-XwdDbGL5or1vbrsi-1" target="3mcL5QzOfvOTShrA23er-23">
                    <mxGeometry relative="1" as="geometry">
                        <mxPoint x="619" y="99" as="sourcePoint"/>
                        <mxPoint x="877.0000000000005" y="-68.5" as="targetPoint"/>
                    </mxGeometry>
                </mxCell>
                <mxCell id="3mcL5QzOfvOTShrA23er-25" value="0, N" style="text;html=1;strokeColor=none;fillColor=none;align=center;verticalAlign=middle;whiteSpace=wrap;rounded=0;labelBackgroundColor=none;labelBorderColor=none;fontColor=#FFFFFF;" vertex="1" parent="NZ24hD41bVVt_TexhkNw-1">
                    <mxGeometry x="1141" y="-99" width="60" height="30" as="geometry"/>
                </mxCell>
                <mxCell id="3mcL5QzOfvOTShrA23er-26" value="" style="endArrow=none;html=1;rounded=0;align=center;verticalAlign=top;endFill=0;labelBackgroundColor=none;endSize=6;startArrow=none;startFill=1;exitX=1;exitY=0.5;exitDx=0;exitDy=0;entryX=0;entryY=0.5;entryDx=0;entryDy=0;" edge="1" parent="NZ24hD41bVVt_TexhkNw-1" source="PlJtt6_AQf1lFd8Zpl1X-7" target="3mcL5QzOfvOTShrA23er-25">
                    <mxGeometry relative="1" as="geometry">
                        <mxPoint x="1093" y="-68.5" as="sourcePoint"/>
                        <mxPoint x="1298" y="-96" as="targetPoint"/>
                    </mxGeometry>
                </mxCell>
                <mxCell id="3mcL5QzOfvOTShrA23er-27" value="0, N" style="text;html=1;strokeColor=none;fillColor=none;align=center;verticalAlign=middle;whiteSpace=wrap;rounded=0;labelBackgroundColor=none;labelBorderColor=none;fontColor=#FFFFFF;" vertex="1" parent="NZ24hD41bVVt_TexhkNw-1">
                    <mxGeometry x="258" y="111.5" width="60" height="30" as="geometry"/>
                </mxCell>
                <mxCell id="3mcL5QzOfvOTShrA23er-28" value="" style="endArrow=none;html=1;rounded=0;align=center;verticalAlign=top;endFill=0;labelBackgroundColor=none;endSize=6;startArrow=none;startFill=1;entryX=1.009;entryY=0.32;entryDx=0;entryDy=0;exitX=-0.009;exitY=0.24;exitDx=0;exitDy=0;exitPerimeter=0;entryPerimeter=0;" edge="1" parent="NZ24hD41bVVt_TexhkNw-1" source="ayO-XwdDbGL5or1vbrsi-4" target="3mcL5QzOfvOTShrA23er-27">
                    <mxGeometry relative="1" as="geometry">
                        <mxPoint x="381.88499999999976" y="143.03999999999996" as="sourcePoint"/>
                        <mxPoint x="203.99800000000005" y="104" as="targetPoint"/>
                    </mxGeometry>
                </mxCell>
                <mxCell id="3mcL5QzOfvOTShrA23er-29" value="0, N" style="text;html=1;strokeColor=none;fillColor=none;align=center;verticalAlign=middle;whiteSpace=wrap;rounded=0;labelBackgroundColor=none;labelBorderColor=none;fontColor=#FFFFFF;" vertex="1" parent="NZ24hD41bVVt_TexhkNw-1">
                    <mxGeometry x="-95" y="24" width="60" height="30" as="geometry"/>
                </mxCell>
                <mxCell id="3mcL5QzOfvOTShrA23er-30" value="" style="endArrow=none;html=1;rounded=0;align=center;verticalAlign=top;endFill=0;labelBackgroundColor=none;endSize=6;startArrow=none;startFill=1;entryX=1;entryY=0.5;entryDx=0;entryDy=0;exitX=0;exitY=0.5;exitDx=0;exitDy=0;" edge="1" parent="NZ24hD41bVVt_TexhkNw-1" source="aAhb1mRORmWq3ktMoKdN-24" target="3mcL5QzOfvOTShrA23er-29">
                    <mxGeometry relative="1" as="geometry">
                        <mxPoint x="-20" y="113" as="sourcePoint"/>
                        <mxPoint x="-97.99999999999955" y="-9" as="targetPoint"/>
                    </mxGeometry>
                </mxCell>
                <mxCell id="3mcL5QzOfvOTShrA23er-31" value="0, N" style="text;html=1;strokeColor=none;fillColor=none;align=center;verticalAlign=middle;whiteSpace=wrap;rounded=0;labelBackgroundColor=none;labelBorderColor=none;fontColor=#FFFFFF;" vertex="1" parent="NZ24hD41bVVt_TexhkNw-1">
                    <mxGeometry x="-59" y="225" width="60" height="30" as="geometry"/>
                </mxCell>
                <mxCell id="3mcL5QzOfvOTShrA23er-32" value="" style="endArrow=none;html=1;rounded=0;align=center;verticalAlign=top;endFill=0;labelBackgroundColor=none;endSize=6;startArrow=none;startFill=1;entryX=1;entryY=0.5;entryDx=0;entryDy=0;exitX=0;exitY=0.5;exitDx=0;exitDy=0;" edge="1" parent="NZ24hD41bVVt_TexhkNw-1" source="zik9dK_EfALcT01HA7fP-0" target="3mcL5QzOfvOTShrA23er-31">
                    <mxGeometry relative="1" as="geometry">
                        <mxPoint x="12.000000000002728" y="221" as="sourcePoint"/>
                        <mxPoint x="-70" y="253" as="targetPoint"/>
                    </mxGeometry>
                </mxCell>
                <mxCell id="3mcL5QzOfvOTShrA23er-33" value="0 , 1" style="text;html=1;strokeColor=none;fillColor=none;align=center;verticalAlign=middle;whiteSpace=wrap;rounded=0;labelBackgroundColor=none;labelBorderColor=none;fontColor=#FFFFFF;" vertex="1" parent="NZ24hD41bVVt_TexhkNw-1">
                    <mxGeometry x="239.5" y="187" width="60" height="30" as="geometry"/>
                </mxCell>
                <mxCell id="3mcL5QzOfvOTShrA23er-34" value="" style="endArrow=none;html=1;rounded=0;align=center;verticalAlign=top;endFill=0;labelBackgroundColor=none;endSize=6;startArrow=none;startFill=1;exitX=-0.017;exitY=0.699;exitDx=0;exitDy=0;exitPerimeter=0;" edge="1" parent="NZ24hD41bVVt_TexhkNw-1" source="ayO-XwdDbGL5or1vbrsi-4" target="3mcL5QzOfvOTShrA23er-33">
                    <mxGeometry relative="1" as="geometry">
                        <mxPoint x="380.0050000000001" y="198.57899999999972" as="sourcePoint"/>
                        <mxPoint x="149.3845318634585" y="216.06983846801722" as="targetPoint"/>
                    </mxGeometry>
                </mxCell>
                <mxCell id="3mcL5QzOfvOTShrA23er-35" value="0 , 1" style="text;html=1;strokeColor=none;fillColor=none;align=center;verticalAlign=middle;whiteSpace=wrap;rounded=0;labelBackgroundColor=none;labelBorderColor=none;fontColor=#FFFFFF;" vertex="1" parent="NZ24hD41bVVt_TexhkNw-1">
                    <mxGeometry x="271" y="270" width="60" height="30" as="geometry"/>
                </mxCell>
                <mxCell id="3mcL5QzOfvOTShrA23er-36" value="" style="endArrow=none;html=1;rounded=0;align=center;verticalAlign=top;endFill=0;labelBackgroundColor=none;endSize=6;startArrow=none;startFill=1;entryX=1;entryY=0.5;entryDx=0;entryDy=0;exitX=0;exitY=1;exitDx=0;exitDy=0;" edge="1" parent="NZ24hD41bVVt_TexhkNw-1" source="ayO-XwdDbGL5or1vbrsi-0" target="3mcL5QzOfvOTShrA23er-35">
                    <mxGeometry relative="1" as="geometry">
                        <mxPoint x="384" y="267.8399999999997" as="sourcePoint"/>
                        <mxPoint x="230.00000000000546" y="300" as="targetPoint"/>
                    </mxGeometry>
                </mxCell>
                <mxCell id="3mcL5QzOfvOTShrA23er-37" value="0, N" style="text;html=1;strokeColor=none;fillColor=none;align=center;verticalAlign=middle;whiteSpace=wrap;rounded=0;labelBackgroundColor=none;labelBorderColor=none;fontColor=#FFFFFF;" vertex="1" parent="NZ24hD41bVVt_TexhkNw-1">
                    <mxGeometry x="-14" y="329.26" width="60" height="30" as="geometry"/>
                </mxCell>
                <mxCell id="3mcL5QzOfvOTShrA23er-38" value="" style="endArrow=none;html=1;rounded=0;align=center;verticalAlign=top;endFill=0;labelBackgroundColor=none;endSize=6;startArrow=none;startFill=1;entryX=1;entryY=0.5;entryDx=0;entryDy=0;exitX=0;exitY=0.5;exitDx=0;exitDy=0;" edge="1" parent="NZ24hD41bVVt_TexhkNw-1" source="zik9dK_EfALcT01HA7fP-1" target="3mcL5QzOfvOTShrA23er-37">
                    <mxGeometry relative="1" as="geometry">
                        <mxPoint x="90.999999999995" y="300" as="sourcePoint"/>
                        <mxPoint x="-76" y="408" as="targetPoint"/>
                    </mxGeometry>
                </mxCell>
                <mxCell id="3mcL5QzOfvOTShrA23er-39" value="0, N" style="text;html=1;strokeColor=none;fillColor=none;align=center;verticalAlign=middle;whiteSpace=wrap;rounded=0;labelBackgroundColor=none;labelBorderColor=none;fontColor=#FFFFFF;" vertex="1" parent="NZ24hD41bVVt_TexhkNw-1">
                    <mxGeometry x="-53" y="587" width="60" height="30" as="geometry"/>
                </mxCell>
                <mxCell id="3mcL5QzOfvOTShrA23er-40" value="" style="endArrow=none;html=1;rounded=0;align=center;verticalAlign=top;endFill=0;labelBackgroundColor=none;endSize=6;startArrow=none;startFill=1;entryX=0.5;entryY=1;entryDx=0;entryDy=0;exitX=0;exitY=0.5;exitDx=0;exitDy=0;" edge="1" parent="NZ24hD41bVVt_TexhkNw-1" source="KT-TbLXuqcUKg8DwN-lT-15" target="3mcL5QzOfvOTShrA23er-39">
                    <mxGeometry relative="1" as="geometry">
                        <mxPoint x="26" y="743" as="sourcePoint"/>
                        <mxPoint x="-36" y="657" as="targetPoint"/>
                    </mxGeometry>
                </mxCell>
                <mxCell id="3mcL5QzOfvOTShrA23er-41" value="0 ,1" style="text;html=1;strokeColor=none;fillColor=none;align=center;verticalAlign=middle;whiteSpace=wrap;rounded=0;labelBackgroundColor=none;labelBorderColor=none;fontColor=#FFFFFF;" vertex="1" parent="NZ24hD41bVVt_TexhkNw-1">
                    <mxGeometry x="51.5" y="729" width="60" height="30" as="geometry"/>
                </mxCell>
                <mxCell id="3mcL5QzOfvOTShrA23er-42" value="" style="endArrow=none;html=1;rounded=0;align=center;verticalAlign=top;endFill=0;labelBackgroundColor=none;endSize=6;startArrow=none;startFill=1;entryX=1;entryY=0.5;entryDx=0;entryDy=0;exitX=0;exitY=0.5;exitDx=0;exitDy=0;" edge="1" parent="NZ24hD41bVVt_TexhkNw-1" source="hLrwO9gcB31nYwEtFnjm-4" target="3mcL5QzOfvOTShrA23er-41">
                    <mxGeometry relative="1" as="geometry">
                        <mxPoint x="162" y="705.21" as="sourcePoint"/>
                        <mxPoint x="95.49999999999682" y="766" as="targetPoint"/>
                    </mxGeometry>
                </mxCell>
                <mxCell id="3mcL5QzOfvOTShrA23er-43" value="0, N" style="text;html=1;strokeColor=none;fillColor=none;align=center;verticalAlign=middle;whiteSpace=wrap;rounded=0;labelBackgroundColor=none;labelBorderColor=none;fontColor=#FFFFFF;" vertex="1" parent="NZ24hD41bVVt_TexhkNw-1">
                    <mxGeometry x="341" y="351" width="60" height="30" as="geometry"/>
                </mxCell>
                <mxCell id="3mcL5QzOfvOTShrA23er-44" value="" style="endArrow=none;html=1;rounded=0;align=center;verticalAlign=top;endFill=0;labelBackgroundColor=none;endSize=6;startArrow=none;startFill=1;exitX=0.25;exitY=1;exitDx=0;exitDy=0;" edge="1" parent="NZ24hD41bVVt_TexhkNw-1" source="ayO-XwdDbGL5or1vbrsi-0" target="3mcL5QzOfvOTShrA23er-43">
                    <mxGeometry relative="1" as="geometry">
                        <mxPoint x="442.75" y="267.8399999999997" as="sourcePoint"/>
                        <mxPoint x="325.3845754759541" y="418" as="targetPoint"/>
                    </mxGeometry>
                </mxCell>
                <mxCell id="3mcL5QzOfvOTShrA23er-45" value="0, N" style="text;html=1;strokeColor=none;fillColor=none;align=center;verticalAlign=middle;whiteSpace=wrap;rounded=0;labelBackgroundColor=none;labelBorderColor=none;fontColor=#FFFFFF;" vertex="1" parent="NZ24hD41bVVt_TexhkNw-1">
                    <mxGeometry x="239.5" y="566" width="60" height="30" as="geometry"/>
                </mxCell>
                <mxCell id="3mcL5QzOfvOTShrA23er-46" value="" style="endArrow=none;html=1;rounded=0;align=center;verticalAlign=top;endFill=0;labelBackgroundColor=none;endSize=6;startArrow=none;startFill=1;entryX=0.5;entryY=1;entryDx=0;entryDy=0;" edge="1" parent="NZ24hD41bVVt_TexhkNw-1" source="hLrwO9gcB31nYwEtFnjm-0" target="3mcL5QzOfvOTShrA23er-45">
                    <mxGeometry relative="1" as="geometry">
                        <mxPoint x="264.1055470574024" y="607.21" as="sourcePoint"/>
                        <mxPoint x="269.5" y="561" as="targetPoint"/>
                    </mxGeometry>
                </mxCell>
                <mxCell id="3mcL5QzOfvOTShrA23er-47" value="0, N" style="text;html=1;strokeColor=none;fillColor=none;align=center;verticalAlign=middle;whiteSpace=wrap;rounded=0;labelBackgroundColor=none;labelBorderColor=none;fontColor=#FFFFFF;" vertex="1" parent="NZ24hD41bVVt_TexhkNw-1">
                    <mxGeometry x="401" y="771" width="60" height="30" as="geometry"/>
                </mxCell>
                <mxCell id="3mcL5QzOfvOTShrA23er-48" value="" style="endArrow=none;html=1;rounded=0;align=center;verticalAlign=top;endFill=0;labelBackgroundColor=none;endSize=6;startArrow=none;startFill=1;entryX=0;entryY=0.5;entryDx=0;entryDy=0;exitX=0.5;exitY=1;exitDx=0;exitDy=0;" edge="1" parent="NZ24hD41bVVt_TexhkNw-1" source="hLrwO9gcB31nYwEtFnjm-0" target="3mcL5QzOfvOTShrA23er-47">
                    <mxGeometry relative="1" as="geometry">
                        <mxPoint x="255" y="763.21" as="sourcePoint"/>
                        <mxPoint x="562.999999999995" y="812" as="targetPoint"/>
                    </mxGeometry>
                </mxCell>
                <mxCell id="3mcL5QzOfvOTShrA23er-49" value="0, N" style="text;html=1;strokeColor=none;fillColor=none;align=center;verticalAlign=middle;whiteSpace=wrap;rounded=0;labelBackgroundColor=none;labelBorderColor=none;fontColor=#FFFFFF;" vertex="1" parent="NZ24hD41bVVt_TexhkNw-1">
                    <mxGeometry x="420" y="469" width="60" height="30" as="geometry"/>
                </mxCell>
                <mxCell id="3mcL5QzOfvOTShrA23er-50" value="" style="endArrow=none;html=1;rounded=0;align=center;verticalAlign=top;endFill=0;labelBackgroundColor=none;endSize=6;startArrow=none;startFill=1;entryX=1;entryY=0.5;entryDx=0;entryDy=0;exitX=0.282;exitY=0.982;exitDx=0;exitDy=0;exitPerimeter=0;" edge="1" parent="NZ24hD41bVVt_TexhkNw-1" source="M_qP7EMYeCVYK5ylgwqu-0" target="3mcL5QzOfvOTShrA23er-49">
                    <mxGeometry relative="1" as="geometry">
                        <mxPoint x="439.0000000000118" y="404" as="sourcePoint"/>
                        <mxPoint x="388" y="532" as="targetPoint"/>
                    </mxGeometry>
                </mxCell>
                <mxCell id="3mcL5QzOfvOTShrA23er-51" value="0, N" style="text;html=1;strokeColor=none;fillColor=none;align=center;verticalAlign=middle;whiteSpace=wrap;rounded=0;labelBackgroundColor=none;labelBorderColor=none;fontColor=#FFFFFF;" vertex="1" parent="NZ24hD41bVVt_TexhkNw-1">
                    <mxGeometry x="563" y="469" width="60" height="30" as="geometry"/>
                </mxCell>
                <mxCell id="3mcL5QzOfvOTShrA23er-52" value="" style="endArrow=none;html=1;rounded=0;align=center;verticalAlign=top;endFill=0;labelBackgroundColor=none;endSize=6;startArrow=none;startFill=1;entryX=0;entryY=0.5;entryDx=0;entryDy=0;exitX=0.623;exitY=1.121;exitDx=0;exitDy=0;exitPerimeter=0;" edge="1" parent="NZ24hD41bVVt_TexhkNw-1" source="M_qP7EMYeCVYK5ylgwqu-0" target="3mcL5QzOfvOTShrA23er-51">
                    <mxGeometry relative="1" as="geometry">
                        <mxPoint x="525.5970000000002" y="432.5659999999998" as="sourcePoint"/>
                        <mxPoint x="638" y="539" as="targetPoint"/>
                    </mxGeometry>
                </mxCell>
                <mxCell id="3mcL5QzOfvOTShrA23er-53" value="0, N" style="text;html=1;strokeColor=none;fillColor=none;align=center;verticalAlign=middle;whiteSpace=wrap;rounded=0;labelBackgroundColor=none;labelBorderColor=none;fontColor=#FFFFFF;" vertex="1" parent="NZ24hD41bVVt_TexhkNw-1">
                    <mxGeometry x="702" y="279" width="60" height="30" as="geometry"/>
                </mxCell>
                <mxCell id="3mcL5QzOfvOTShrA23er-54" value="" style="endArrow=none;html=1;rounded=0;align=center;verticalAlign=top;endFill=0;labelBackgroundColor=none;endSize=6;startArrow=none;startFill=1;exitX=1;exitY=1;exitDx=0;exitDy=0;" edge="1" parent="NZ24hD41bVVt_TexhkNw-1" source="ayO-XwdDbGL5or1vbrsi-0" target="3mcL5QzOfvOTShrA23er-53">
                    <mxGeometry relative="1" as="geometry">
                        <mxPoint x="619" y="267.8399999999997" as="sourcePoint"/>
                        <mxPoint x="818" y="320.09777617772806" as="targetPoint"/>
                    </mxGeometry>
                </mxCell>
                <mxCell id="3mcL5QzOfvOTShrA23er-55" value="0, N" style="text;html=1;strokeColor=none;fillColor=none;align=center;verticalAlign=middle;whiteSpace=wrap;rounded=0;labelBackgroundColor=none;labelBorderColor=none;fontColor=#FFFFFF;" vertex="1" parent="NZ24hD41bVVt_TexhkNw-1">
                    <mxGeometry x="1002" y="400.51" width="60" height="30" as="geometry"/>
                </mxCell>
                <mxCell id="3mcL5QzOfvOTShrA23er-56" value="" style="endArrow=none;html=1;rounded=0;align=center;verticalAlign=top;endFill=0;labelBackgroundColor=none;endSize=6;startArrow=none;startFill=1;exitX=0;exitY=0;exitDx=0;exitDy=0;" edge="1" parent="NZ24hD41bVVt_TexhkNw-1" source="pqFCJquyYfx5Mul4W1ZP-0" target="3mcL5QzOfvOTShrA23er-55">
                    <mxGeometry relative="1" as="geometry">
                        <mxPoint x="1093" y="439" as="sourcePoint"/>
                        <mxPoint x="960.833333333333" y="400" as="targetPoint"/>
                    </mxGeometry>
                </mxCell>
                <mxCell id="3mcL5QzOfvOTShrA23er-57" value="0, N" style="text;html=1;strokeColor=none;fillColor=none;align=center;verticalAlign=middle;whiteSpace=wrap;rounded=0;labelBackgroundColor=none;labelBorderColor=none;fontColor=#FFFFFF;" vertex="1" parent="NZ24hD41bVVt_TexhkNw-1">
                    <mxGeometry x="990" y="547" width="60" height="30" as="geometry"/>
                </mxCell>
                <mxCell id="3mcL5QzOfvOTShrA23er-58" value="" style="endArrow=none;html=1;rounded=0;align=center;verticalAlign=top;endFill=0;labelBackgroundColor=none;endSize=6;startArrow=none;startFill=1;entryX=0;entryY=1.224;entryDx=0;entryDy=0;exitX=0.744;exitY=1.078;exitDx=0;exitDy=0;exitPerimeter=0;entryPerimeter=0;" edge="1" parent="NZ24hD41bVVt_TexhkNw-1" source="OYtwcB21SmvSHsJzqfex-0" target="3mcL5QzOfvOTShrA23er-57">
                    <mxGeometry relative="1" as="geometry">
                        <mxPoint x="950.4160000000002" y="554.5880000000002" as="sourcePoint"/>
                        <mxPoint x="1093" y="565.7199999999998" as="targetPoint"/>
                    </mxGeometry>
                </mxCell>
                <mxCell id="MOAtFmsJQ_MiPiYk_iym-0" value="0 ,1" style="text;html=1;strokeColor=none;fillColor=none;align=center;verticalAlign=middle;whiteSpace=wrap;rounded=0;labelBackgroundColor=none;labelBorderColor=none;fontColor=#FFFFFF;" vertex="1" parent="NZ24hD41bVVt_TexhkNw-1">
                    <mxGeometry x="1263" y="328" width="60" height="30" as="geometry"/>
                </mxCell>
                <mxCell id="MOAtFmsJQ_MiPiYk_iym-1" value="" style="endArrow=none;html=1;rounded=0;align=center;verticalAlign=top;endFill=0;labelBackgroundColor=none;endSize=6;startArrow=none;startFill=1;exitX=1;exitY=0.5;exitDx=0;exitDy=0;entryX=0.25;entryY=1;entryDx=0;entryDy=0;" edge="1" parent="NZ24hD41bVVt_TexhkNw-1" source="3mcL5QzOfvOTShrA23er-3" target="MOAtFmsJQ_MiPiYk_iym-0">
                    <mxGeometry relative="1" as="geometry">
                        <mxPoint x="1255.0000000000132" y="364" as="sourcePoint"/>
                        <mxPoint x="1342.5000000000005" y="309" as="targetPoint"/>
                    </mxGeometry>
                </mxCell>
                <mxCell id="5tVQvCFI44JdURqjJstN-0" value="0, N" style="text;html=1;strokeColor=none;fillColor=none;align=center;verticalAlign=middle;whiteSpace=wrap;rounded=0;labelBackgroundColor=none;labelBorderColor=none;fontColor=#FFFFFF;" vertex="1" parent="NZ24hD41bVVt_TexhkNw-1">
                    <mxGeometry x="1155.5" y="400.51" width="60" height="30" as="geometry"/>
                </mxCell>
                <mxCell id="5tVQvCFI44JdURqjJstN-1" value="" style="endArrow=none;html=1;rounded=0;align=center;verticalAlign=top;endFill=0;labelBackgroundColor=none;endSize=6;startArrow=none;startFill=1;entryX=0.5;entryY=1;entryDx=0;entryDy=0;" edge="1" parent="NZ24hD41bVVt_TexhkNw-1" source="pqFCJquyYfx5Mul4W1ZP-0" target="5tVQvCFI44JdURqjJstN-0">
                    <mxGeometry relative="1" as="geometry">
                        <mxPoint x="1184.4763779527557" y="439" as="sourcePoint"/>
                        <mxPoint x="1185.4999999999995" y="387" as="targetPoint"/>
                    </mxGeometry>
                </mxCell>
                <mxCell id="5tVQvCFI44JdURqjJstN-2" value="0, N" style="text;html=1;strokeColor=none;fillColor=none;align=center;verticalAlign=middle;whiteSpace=wrap;rounded=0;labelBackgroundColor=none;labelBorderColor=none;fontColor=#FFFFFF;" vertex="1" parent="NZ24hD41bVVt_TexhkNw-1">
                    <mxGeometry x="1103" y="155" width="60" height="30" as="geometry"/>
                </mxCell>
                <mxCell id="5tVQvCFI44JdURqjJstN-3" value="" style="endArrow=none;html=1;rounded=0;align=center;verticalAlign=top;endFill=0;labelBackgroundColor=none;endSize=6;startArrow=none;startFill=1;exitX=0;exitY=0;exitDx=0;exitDy=0;entryX=1;entryY=0.5;entryDx=0;entryDy=0;" edge="1" parent="NZ24hD41bVVt_TexhkNw-1" source="g9FRePbC9gzXtTIRcfvs-0" target="5tVQvCFI44JdURqjJstN-2">
                    <mxGeometry relative="1" as="geometry">
                        <mxPoint x="1110.9412142982815" y="165.1664741694815" as="sourcePoint"/>
                        <mxPoint x="1057" y="154" as="targetPoint"/>
                    </mxGeometry>
                </mxCell>
                <mxCell id="5tVQvCFI44JdURqjJstN-4" value="0, N" style="text;html=1;strokeColor=none;fillColor=none;align=center;verticalAlign=middle;whiteSpace=wrap;rounded=0;labelBackgroundColor=none;labelBorderColor=none;fontColor=#FFFFFF;" vertex="1" parent="NZ24hD41bVVt_TexhkNw-1">
                    <mxGeometry x="826" y="111.5" width="60" height="30" as="geometry"/>
                </mxCell>
                <mxCell id="5tVQvCFI44JdURqjJstN-5" value="" style="endArrow=none;html=1;rounded=0;align=center;verticalAlign=top;endFill=0;labelBackgroundColor=none;endSize=6;startArrow=none;startFill=1;exitX=1;exitY=0.5;exitDx=0;exitDy=0;entryX=0;entryY=0.5;entryDx=0;entryDy=0;" edge="1" parent="NZ24hD41bVVt_TexhkNw-1" source="nrvHIdxCho8Uk1vL8Cxf-0" target="5tVQvCFI44JdURqjJstN-4">
                    <mxGeometry relative="1" as="geometry">
                        <mxPoint x="826.0000000000005" y="126.5" as="sourcePoint"/>
                        <mxPoint x="877" y="124" as="targetPoint"/>
                    </mxGeometry>
                </mxCell>
                <mxCell id="5tVQvCFI44JdURqjJstN-6" value="0 ,1" style="text;html=1;strokeColor=none;fillColor=none;align=center;verticalAlign=middle;whiteSpace=wrap;rounded=0;labelBackgroundColor=none;labelBorderColor=none;fontColor=#FFFFFF;" vertex="1" parent="NZ24hD41bVVt_TexhkNw-1">
                    <mxGeometry x="1238" y="249" width="60" height="30" as="geometry"/>
                </mxCell>
                <mxCell id="5tVQvCFI44JdURqjJstN-7" value="" style="endArrow=none;html=1;rounded=0;align=center;verticalAlign=top;endFill=0;labelBackgroundColor=none;endSize=6;startArrow=none;startFill=1;exitX=0.5;exitY=1;exitDx=0;exitDy=0;entryX=0;entryY=0.5;entryDx=0;entryDy=0;" edge="1" parent="NZ24hD41bVVt_TexhkNw-1" source="g9FRePbC9gzXtTIRcfvs-0" target="5tVQvCFI44JdURqjJstN-6">
                    <mxGeometry relative="1" as="geometry">
                        <mxPoint x="1221.5" y="238" as="sourcePoint"/>
                        <mxPoint x="1302" y="285" as="targetPoint"/>
                    </mxGeometry>
                </mxCell>
                <mxCell id="5tVQvCFI44JdURqjJstN-9" value="0, N" style="text;html=1;strokeColor=none;fillColor=none;align=center;verticalAlign=middle;whiteSpace=wrap;rounded=0;labelBackgroundColor=none;labelBorderColor=none;fontColor=#FFFFFF;" vertex="1" parent="NZ24hD41bVVt_TexhkNw-1">
                    <mxGeometry x="1365" y="-30" width="60" height="30" as="geometry"/>
                </mxCell>
                <mxCell id="5tVQvCFI44JdURqjJstN-10" value="" style="endArrow=none;html=1;rounded=0;align=center;verticalAlign=top;endFill=0;labelBackgroundColor=none;endSize=6;startArrow=none;startFill=1;exitX=0.5;exitY=0;exitDx=0;exitDy=0;" edge="1" parent="NZ24hD41bVVt_TexhkNw-1" source="GjIhu6G1a1tVIv9Z8uJo-0" target="5tVQvCFI44JdURqjJstN-9">
                    <mxGeometry relative="1" as="geometry">
                        <mxPoint x="1404.4999999999995" y="19.999999999999773" as="sourcePoint"/>
                        <mxPoint x="1379" y="-57" as="targetPoint"/>
                    </mxGeometry>
                </mxCell>
                <mxCell id="5tVQvCFI44JdURqjJstN-8" value="0 ,1" style="text;html=1;strokeColor=none;fillColor=none;align=center;verticalAlign=middle;whiteSpace=wrap;rounded=0;labelBackgroundColor=none;labelBorderColor=none;fontColor=#FFFFFF;" vertex="1" parent="NZ24hD41bVVt_TexhkNw-1">
                    <mxGeometry x="1365" y="101" width="60" height="30" as="geometry"/>
                </mxCell>
                <mxCell id="5tVQvCFI44JdURqjJstN-11" value="" style="endArrow=none;html=1;rounded=0;align=center;verticalAlign=top;endFill=0;labelBackgroundColor=none;endSize=6;startArrow=none;startFill=1;exitX=0.5;exitY=0;exitDx=0;exitDy=0;entryX=0.5;entryY=1;entryDx=0;entryDy=0;" edge="1" parent="NZ24hD41bVVt_TexhkNw-1" source="-BV69GhfwW0_i8k1_7dU-0" target="5tVQvCFI44JdURqjJstN-8">
                    <mxGeometry relative="1" as="geometry">
                        <mxPoint x="1383" y="155" as="sourcePoint"/>
                        <mxPoint x="1404.4999999999995" y="65.99999999999977" as="targetPoint"/>
                    </mxGeometry>
                </mxCell>
                <mxCell id="5tVQvCFI44JdURqjJstN-12" value="0 ,1" style="text;html=1;strokeColor=none;fillColor=none;align=center;verticalAlign=middle;whiteSpace=wrap;rounded=0;labelBackgroundColor=none;labelBorderColor=none;fontColor=#FFFFFF;" vertex="1" parent="NZ24hD41bVVt_TexhkNw-1">
                    <mxGeometry x="633" y="131" width="60" height="30" as="geometry"/>
                </mxCell>
                <mxCell id="5tVQvCFI44JdURqjJstN-13" value="" style="endArrow=none;html=1;rounded=0;align=center;verticalAlign=top;endFill=0;labelBackgroundColor=none;endSize=6;startArrow=none;startFill=1;exitX=1;exitY=0.5;exitDx=0;exitDy=0;entryX=0;entryY=0.5;entryDx=0;entryDy=0;" edge="1" parent="NZ24hD41bVVt_TexhkNw-1" source="ayO-XwdDbGL5or1vbrsi-4" target="5tVQvCFI44JdURqjJstN-12">
                    <mxGeometry relative="1" as="geometry">
                        <mxPoint x="619" y="174.5" as="sourcePoint"/>
                        <mxPoint x="708.0000000000005" y="126.5" as="targetPoint"/>
                    </mxGeometry>
                </mxCell>
                <mxCell id="Le9eaMWr8VOy0vCNwcUT-0" value="0, N" style="text;html=1;strokeColor=none;fillColor=none;align=center;verticalAlign=middle;whiteSpace=wrap;rounded=0;labelBackgroundColor=none;labelBorderColor=none;fontColor=#FFFFFF;" vertex="1" parent="NZ24hD41bVVt_TexhkNw-1">
                    <mxGeometry x="959" y="677.21" width="60" height="30" as="geometry"/>
                </mxCell>
                <mxCell id="Le9eaMWr8VOy0vCNwcUT-1" value="" style="endArrow=none;html=1;rounded=0;align=center;verticalAlign=top;endFill=0;labelBackgroundColor=none;endSize=6;startArrow=none;startFill=1;entryX=1;entryY=0.5;entryDx=0;entryDy=0;exitX=0;exitY=0.5;exitDx=0;exitDy=0;" edge="1" parent="NZ24hD41bVVt_TexhkNw-1" source="W-0MPcJ2i0DKQ3aUKoie-11" target="Le9eaMWr8VOy0vCNwcUT-0">
                    <mxGeometry relative="1" as="geometry">
                        <mxPoint x="1232.999999999999" y="663.9999999999995" as="sourcePoint"/>
                        <mxPoint x="873" y="706" as="targetPoint"/>
                    </mxGeometry>
                </mxCell>
                <mxCell id="Le9eaMWr8VOy0vCNwcUT-2" value="0 ,1" style="text;html=1;strokeColor=none;fillColor=none;align=center;verticalAlign=middle;whiteSpace=wrap;rounded=0;labelBackgroundColor=none;labelBorderColor=none;fontColor=#FFFFFF;" vertex="1" parent="NZ24hD41bVVt_TexhkNw-1">
                    <mxGeometry x="1206" y="602" width="60" height="30" as="geometry"/>
                </mxCell>
                <mxCell id="Le9eaMWr8VOy0vCNwcUT-3" value="" style="endArrow=none;html=1;rounded=0;align=center;verticalAlign=top;endFill=0;labelBackgroundColor=none;endSize=6;startArrow=none;startFill=1;entryX=0;entryY=0;entryDx=0;entryDy=0;exitX=0.5;exitY=1;exitDx=0;exitDy=0;" edge="1" parent="NZ24hD41bVVt_TexhkNw-1" source="pqFCJquyYfx5Mul4W1ZP-0" target="Le9eaMWr8VOy0vCNwcUT-2">
                    <mxGeometry relative="1" as="geometry">
                        <mxPoint x="1183" y="589" as="sourcePoint"/>
                        <mxPoint x="1253.5338126700572" y="647.6779375566853" as="targetPoint"/>
                    </mxGeometry>
                </mxCell>
                <mxCell id="Le9eaMWr8VOy0vCNwcUT-5" style="edgeStyle=none;html=1;exitX=0.5;exitY=1;exitDx=0;exitDy=0;entryX=0.586;entryY=0.729;entryDx=0;entryDy=0;entryPerimeter=0;fontColor=#FFFFFF;" edge="1" parent="NZ24hD41bVVt_TexhkNw-1" source="Le9eaMWr8VOy0vCNwcUT-2" target="Le9eaMWr8VOy0vCNwcUT-2">
                    <mxGeometry relative="1" as="geometry"/>
                </mxCell>
                <mxCell id="Le9eaMWr8VOy0vCNwcUT-6" value="0, N" style="text;html=1;strokeColor=none;fillColor=none;align=center;verticalAlign=middle;whiteSpace=wrap;rounded=0;labelBackgroundColor=none;labelBorderColor=none;fontColor=#FFFFFF;" vertex="1" parent="NZ24hD41bVVt_TexhkNw-1">
                    <mxGeometry x="851" y="811" width="60" height="30" as="geometry"/>
                </mxCell>
                <mxCell id="Le9eaMWr8VOy0vCNwcUT-7" value="" style="endArrow=none;html=1;rounded=0;align=center;verticalAlign=top;endFill=0;labelBackgroundColor=none;endSize=6;startArrow=none;startFill=1;" edge="1" parent="NZ24hD41bVVt_TexhkNw-1" source="fc6cnDB35qKV8UsqITET-0" target="Le9eaMWr8VOy0vCNwcUT-6">
                    <mxGeometry relative="1" as="geometry">
                        <mxPoint x="993" y="821.3962264150941" as="sourcePoint"/>
                        <mxPoint x="632.5000000000005" y="835" as="targetPoint"/>
                    </mxGeometry>
                </mxCell>
                <mxCell id="Le9eaMWr8VOy0vCNwcUT-8" value="0, N" style="text;html=1;strokeColor=none;fillColor=none;align=center;verticalAlign=middle;whiteSpace=wrap;rounded=0;labelBackgroundColor=none;labelBorderColor=none;fontColor=#FFFFFF;" vertex="1" parent="NZ24hD41bVVt_TexhkNw-1">
                    <mxGeometry x="1310" y="751" width="60" height="30" as="geometry"/>
                </mxCell>
                <mxCell id="Le9eaMWr8VOy0vCNwcUT-9" value="" style="endArrow=none;html=1;rounded=0;align=center;verticalAlign=top;endFill=0;labelBackgroundColor=none;endSize=6;startArrow=none;startFill=1;entryX=0.5;entryY=1;entryDx=0;entryDy=0;exitX=1;exitY=0.5;exitDx=0;exitDy=0;" edge="1" parent="NZ24hD41bVVt_TexhkNw-1" source="fc6cnDB35qKV8UsqITET-1" target="Le9eaMWr8VOy0vCNwcUT-8">
                    <mxGeometry relative="1" as="geometry">
                        <mxPoint x="1173" y="801" as="sourcePoint"/>
                        <mxPoint x="1489.5" y="497" as="targetPoint"/>
                        <Array as="points"/>
                    </mxGeometry>
                </mxCell>
                <mxCell id="Le9eaMWr8VOy0vCNwcUT-14" value="0 ,1" style="text;html=1;strokeColor=none;fillColor=none;align=center;verticalAlign=middle;whiteSpace=wrap;rounded=0;labelBackgroundColor=none;labelBorderColor=none;fontColor=#FFFFFF;" vertex="1" parent="NZ24hD41bVVt_TexhkNw-1">
                    <mxGeometry x="1430" y="351" width="60" height="30" as="geometry"/>
                </mxCell>
                <mxCell id="Le9eaMWr8VOy0vCNwcUT-15" value="" style="endArrow=none;html=1;rounded=0;align=center;verticalAlign=top;endFill=0;labelBackgroundColor=none;endSize=6;startArrow=none;startFill=1;exitX=0.75;exitY=1;exitDx=0;exitDy=0;entryX=0.5;entryY=0;entryDx=0;entryDy=0;" edge="1" parent="NZ24hD41bVVt_TexhkNw-1" source="-BV69GhfwW0_i8k1_7dU-0" target="Le9eaMWr8VOy0vCNwcUT-14">
                    <mxGeometry relative="1" as="geometry">
                        <mxPoint x="1423.5000000000005" y="309" as="sourcePoint"/>
                        <mxPoint x="1489.5" y="451" as="targetPoint"/>
                    </mxGeometry>
                </mxCell>
            </root>
        </mxGraphModel>
    </diagram>
</mxfile>